<?xml version="1.0" encoding="UTF-8" standalone="no"?>
<!-- Created with Inkscape (http://www.inkscape.org/) -->

<svg
   width="112mm"
   height="138mm"
   viewBox="0 0 112 138"
   version="1.1"
   id="svg5"
   inkscape:export-filename="C:\Users\julie\OneDrive\Documentos\Github\estudianExamen\reloj\relojs.png"
   inkscape:export-xdpi="315.17001"
   inkscape:export-ydpi="315.17001"
   inkscape:version="1.1.2 (b8e25be833, 2022-02-05)"
   sodipodi:docname="rrre.svg"
   xmlns:inkscape="http://www.inkscape.org/namespaces/inkscape"
   xmlns:sodipodi="http://sodipodi.sourceforge.net/DTD/sodipodi-0.dtd"
   xmlns="http://www.w3.org/2000/svg"
   xmlns:svg="http://www.w3.org/2000/svg">
  <sodipodi:namedview
     id="namedview7"
     pagecolor="#505050"
     bordercolor="#eeeeee"
     borderopacity="1"
     inkscape:pageshadow="0"
     inkscape:pageopacity="0"
     inkscape:pagecheckerboard="0"
     inkscape:document-units="mm"
     showgrid="false"
     inkscape:zoom="0.96995498"
     inkscape:cx="423.731"
     inkscape:cy="238.15538"
     inkscape:window-width="1920"
     inkscape:window-height="974"
     inkscape:window-x="-11"
     inkscape:window-y="-11"
     inkscape:window-maximized="1"
     inkscape:current-layer="layer1" />
  <defs
     id="defs2">
    <clipPath
       clipPathUnits="userSpaceOnUse"
       id="clipPath1064">
      <ellipse
         style="fill:none;stroke:#000000;stroke-width:0.233124;stroke-opacity:1;paint-order:markers stroke fill"
         id="ellipse1066"
         cx="164.89285"
         cy="194.39999"
         rx="41.062008"
         ry="38.554867" />
    </clipPath>
    <clipPath
       clipPathUnits="userSpaceOnUse"
       id="clipPath2653">
      <ellipse
         style="fill:none;fill-opacity:1;stroke:#000000;stroke-width:0.2;stroke-opacity:1;paint-order:markers stroke fill"
         id="ellipse2655"
         cx="159.58405"
         cy="165.97322"
         rx="35.285645"
         ry="36.737728" />
    </clipPath>
  </defs>
  <g
     inkscape:label="Capa 1"
     inkscape:groupmode="layer"
     id="layer1">
    <path
       style="fill:#000000;stroke:none;stroke-width:0.14689;stroke-opacity:1;paint-order:markers stroke fill"
       d=""
       id="path5646"
       transform="scale(0.26458333)" />
    <path
       style="fill:#000000;stroke:none;stroke-width:0.14689;stroke-opacity:1;paint-order:markers stroke fill"
       d=""
       id="path6231"
       transform="scale(0.26458333)" />
    <path
       style="fill:#000000;stroke:none;stroke-width:0.14689;stroke-opacity:1;paint-order:markers stroke fill"
       d=""
       id="path7713"
       transform="scale(0.26458333)" />
    <g
       id="g9489"
       transform="translate(5.4555839,-3.5461261)">
      <path
         style="fill:#ffd42a;stroke:none;stroke-width:0.0775874;stroke-opacity:1;paint-order:markers stroke fill"
         d="m 50.60936,116.74482 c -3.258331,-0.1544 -7.34494,-1.06325 -10.798085,-2.40147 -16.497667,-6.39343 -25.511011,-22.928315 -21.356381,-39.17804 1.152122,-4.506215 3.566074,-9.141994 6.70456,-12.875483 1.696375,-2.01798 4.513669,-4.572249 6.841849,-6.2031 4.453935,-3.119888 10.372912,-5.481038 15.808369,-6.30615 1.448617,-0.219901 6.73373,-0.309781 8.748728,-0.148773 4.082573,0.3262 8.036428,1.391028 12.064043,3.249035 9.095322,4.195806 15.975055,11.943002 18.851828,21.228835 0.936962,3.024391 1.169155,4.80451 1.167495,8.950677 -0.0019,3.905021 -0.15861,5.377691 -0.850991,7.980042 -2.479599,9.319727 -9.355431,17.570117 -18.316264,21.977907 -5.770183,2.83833 -11.930169,4.05514 -18.865151,3.72652 z m -0.56929,-4.14586 c 0.325812,-0.73602 0.319783,-1.8336 -0.01007,-1.8336 -0.214998,0 -0.371038,0.31971 -0.373995,0.76628 -0.0012,0.20927 -0.04522,0.55423 -0.09741,0.76656 -0.173864,0.70731 0.198535,0.93994 0.481481,0.30076 z m 3.611972,0.24058 c 0.08821,-0.0833 0.126777,-0.61306 0.126777,-1.74159 0,-1.5015 -0.01516,-1.62959 -0.204352,-1.72515 -0.298159,-0.15062 -0.706999,-0.12626 -0.897411,0.0535 -0.136854,0.12917 -0.166021,0.43226 -0.166021,1.72516 0,1.08695 0.03892,1.60519 0.126778,1.68811 0.06973,0.0658 0.29793,0.11967 0.507115,0.11967 0.209184,0 0.437384,-0.0538 0.507114,-0.11967 z m 2.881322,-0.30415 c 0.13186,-0.46005 0.05943,-1.54713 -0.113989,-1.71082 -0.06956,-0.0656 -0.149561,-0.0571 -0.237051,0.0256 -0.144302,0.1362 -0.187714,1.63214 -0.05614,1.93457 0.126555,0.2909 0.279118,0.1975 0.40718,-0.2493 z m -9.755537,-0.19944 c 0.164799,-0.19879 0.34513,-1.01645 0.34513,-1.56489 0,-0.38916 -0.03742,-0.5043 -0.163863,-0.5043 -0.196874,0 -0.391758,0.42162 -0.599202,1.29637 -0.172706,0.72827 -0.149135,0.89748 0.125042,0.89748 0.104255,0 0.23606,-0.0561 0.292893,-0.12466 z m 13.002813,-0.41764 c 0.03646,-0.53214 -0.134954,-1.41763 -0.313818,-1.62104 -0.185759,-0.21127 -0.405575,0.0377 -0.405575,0.45935 0,0.34825 0.253812,1.42717 0.381675,1.62244 0.139221,0.21262 0.307287,-0.0166 0.337718,-0.46075 z m -16.217319,-0.53334 c 0.505038,-0.52675 0.81846,-1.81625 0.441451,-1.81625 -0.212008,0 -0.544671,0.52253 -0.749351,1.17704 -0.228827,0.73173 -0.07901,1.04275 0.3079,0.63921 z m 19.489155,-0.0789 c 0.04653,-0.30325 -0.432447,-1.56029 -0.639892,-1.67933 -0.403733,-0.23168 -0.462782,0.42144 -0.111634,1.23476 0.278552,0.64517 0.683943,0.88498 0.751526,0.44457 z m -22.433809,-0.96545 c 0.204844,-0.29509 0.799266,-1.65802 0.799266,-1.83261 0,-0.25289 -0.410311,-0.13779 -0.67095,0.18822 -0.365833,0.45758 -0.596834,1.03158 -0.596834,1.48305 0,0.4484 0.217303,0.52323 0.468518,0.16134 z m 25.521038,-0.0617 c 0,-0.3375 -0.201604,-0.821 -0.605475,-1.45212 -0.33625,-0.52545 -0.662357,-0.61434 -0.662225,-0.1805 8.8e-5,0.29676 0.545035,1.46151 0.816468,1.7451 0.253731,0.26508 0.451232,0.21586 0.451232,-0.11248 z m -27.547088,-2.08136 c 0.77068,-1.28837 0.923643,-1.61503 0.923643,-1.97246 0,-0.50714 -0.791268,-0.60368 -1.199024,-0.14629 -0.414608,0.46509 -1.348027,2.08335 -1.410171,2.4448 -0.04982,0.28978 -0.01222,0.35256 0.350381,0.58513 0.223405,0.14329 0.457508,0.26053 0.520231,0.26053 0.06273,0 0.42945,-0.52727 0.81494,-1.17171 z m 30.466447,0.80583 c 0.454036,-0.32687 0.434227,-0.44732 -0.248712,-1.51211 -0.796598,-1.242 -1.204296,-1.71193 -1.485187,-1.71193 -0.400808,0 -0.657219,0.18165 -0.657219,0.46561 0,0.36547 1.070323,2.31876 1.56173,2.85008 0.221129,0.23908 0.396982,0.21966 0.829388,-0.0917 z m -14.883921,-0.88884 c 0.724777,-0.33428 1.088287,-0.89011 1.154804,-1.76578 0.03848,-0.50663 0.0069,-0.67946 -0.17375,-0.95009 -0.289163,-0.43324 -1.184853,-0.82599 -1.895611,-0.83118 -0.956367,-0.007 -0.995769,0.22334 -0.142877,0.83523 0.750123,0.53816 0.89405,0.78178 0.837615,1.41781 -0.07853,0.88506 -0.775726,1.18787 -1.431492,0.62173 -1.06299,-0.91772 -0.537568,-2.82693 1.348368,-4.89951 0.609849,-0.6702 0.665832,-0.85194 0.262445,-0.85194 -0.419569,0 -0.903462,0.3297 -1.752974,1.19438 -1.281874,1.30476 -1.759867,2.19716 -1.767673,3.30019 -0.0085,1.20312 0.46006,1.97778 1.318239,2.17932 0.638338,0.14991 1.610598,0.0415 2.242906,-0.25016 z m -19.08182,-1.05347 c 0.469557,-0.48008 0.878474,-1.22028 0.791848,-1.43336 -0.109982,-0.27052 -0.353891,-0.1525 -0.777007,0.376 -0.658193,0.82211 -0.768686,1.00089 -0.768686,1.24375 0,0.35191 0.299873,0.27775 0.753845,-0.18639 z m 36.730018,0.0945 c 0.04368,-0.21249 -0.814214,-1.35863 -1.165083,-1.55651 -0.752143,-0.42418 -0.491948,0.47033 0.389343,1.33847 0.45665,0.44985 0.713259,0.52197 0.77574,0.21804 z m 2.506085,-1.77808 c 0.08631,-0.13178 -0.394437,-0.90699 -0.871611,-1.40552 -0.420341,-0.43916 -0.770017,-0.51333 -0.764151,-0.16209 0.0057,0.36928 0.400464,0.90143 1.034436,1.39608 0.380531,0.29692 0.497394,0.33025 0.601326,0.17153 z m -41.614038,-0.42082 c 0.61247,-0.60757 0.88455,-0.97212 0.88455,-1.18516 0,-0.46346 -0.819048,0.003 -1.360506,0.77422 -0.611797,0.87181 -0.278616,1.15948 0.475956,0.41094 z m -2.321697,-2.11421 c 0.55386,-0.35206 1.055135,-0.96784 0.935994,-1.14981 -0.150511,-0.22985 -0.513114,-0.0672 -1.18056,0.52969 -0.5069,0.45329 -0.686792,0.67817 -0.638169,0.79776 0.09888,0.24322 0.277046,0.20737 0.882735,-0.17764 z m 46.38468,0.18653 c 0.06352,-0.18231 -0.363029,-0.60614 -1.038347,-1.0318 -0.968656,-0.61054 -1.241764,-0.49748 -0.611941,0.25332 0.591597,0.70524 1.522818,1.14451 1.650288,0.77848 z m -48.502017,-2.49509 c 0.611998,-0.38641 0.991992,-0.752572 0.991992,-0.955842 0,-0.26288 -0.308236,-0.22509 -0.850917,0.10433 -0.620504,0.376652 -0.987608,0.762882 -0.908966,0.956312 0.08968,0.22059 0.297448,0.19224 0.767891,-0.1048 z m 50.504489,0.10616 c 0.03424,-0.0843 -0.02442,-0.24372 -0.13036,-0.35425 -0.333767,-0.348112 -1.430951,-0.988262 -1.693836,-0.988262 -0.627019,0 -0.04216,0.723382 1.017364,1.258272 0.548831,0.27709 0.721108,0.29508 0.806832,0.0843 z m 1.802679,-2.528962 c 0.132734,-0.18636 0.241339,-0.39549 0.241339,-0.46473 0,-0.23464 -2.466647,-1.57172 -3.130797,-1.6971 -0.394846,-0.0745 -0.703282,0.21751 -0.654068,0.61931 0.02613,0.21327 0.185859,0.37982 0.668232,0.69678 0.933719,0.61352 2.188588,1.23941 2.426284,1.21014 0.114222,-0.014 0.316275,-0.17804 0.44901,-0.3644 z M 27.84941,97.662328 c 1.470128,-0.79389 1.564193,-0.90174 1.264161,-1.44938 -0.237859,-0.43416 -0.528254,-0.39869 -1.781634,0.21763 -1.297088,0.6378 -1.920641,1.15053 -1.810642,1.48884 0.228544,0.70292 0.633089,0.65825 2.328115,-0.25709 z m 54.243234,-2.29986 c 0,-0.33145 -1.243796,-1.05095 -1.816776,-1.05095 -0.599275,0 -0.240442,0.47249 0.70746,0.93154 0.59814,0.28966 1.109316,0.34468 1.109316,0.11941 z m -56.55957,-0.30016 c 0.610262,-0.26614 0.784796,-0.38716 0.754953,-0.52352 -0.101504,-0.46381 -2.090813,0.23604 -2.090813,0.73556 0,0.23013 0.506199,0.14978 1.33586,-0.21204 z m -1.113841,-2.839544 c 0.846995,-0.303776 1.22012,-0.703373 0.656775,-0.703373 -0.431337,0 -1.910952,0.400641 -2.045734,0.553924 -0.329748,0.375033 0.5085,0.465223 1.388959,0.149449 z m 58.941193,0.09696 c 0,-0.194325 -1.57247,-0.800328 -2.076693,-0.800328 -0.288178,0 -0.342504,0.300103 -0.09013,0.497822 0.414942,0.325039 2.166804,0.56961 2.166804,0.302506 z m -60.186808,-2.85263 c 0.792849,-0.19392 1.234893,-0.402316 1.234893,-0.582174 0,-0.240904 -0.294943,-0.25456 -1.132348,-0.05239 -0.872018,0.210511 -1.154404,0.381061 -1.051211,0.634883 0.07939,0.195279 0.149101,0.195252 0.948666,-2.34e-4 z m 60.759235,0.09709 c 0.09194,-0.03331 0.167108,-0.144182 0.167108,-0.246431 0,-0.142939 -0.1648,-0.2329 -0.713125,-0.389289 -0.945022,-0.269522 -1.538593,-0.303605 -1.585451,-0.09101 -0.05217,0.236825 0.428447,0.486506 1.224663,0.63617 0.387283,0.07283 0.712143,0.136566 0.721919,0.141725 0.0097,0.0054 0.09299,-0.01783 0.184886,-0.05113 z m -6.249251,-3.229996 c 1.403874,-0.409886 2.103694,-1.410815 1.770861,-2.532843 -0.143455,-0.483634 -0.455534,-0.841451 -1.066988,-1.223395 -0.22832,-0.142615 -0.414141,-0.286986 -0.41292,-0.320835 9.54e-4,-0.03385 0.379109,-0.487848 0.839755,-1.008878 l 0.837552,-0.947346 -1.55288,-0.05951 c -0.85409,-0.03268 -1.629648,-0.09128 -1.723469,-0.130138 -0.09385,-0.03889 -0.22874,-0.191129 -0.299823,-0.33839 -0.122472,-0.253723 -0.136731,-0.258089 -0.272165,-0.08327 -0.27719,0.357808 -0.447732,1.512497 -0.300157,2.032285 0.09204,0.324067 0.419024,0.283836 0.548792,-0.06752 0.09061,-0.245386 0.181625,-0.302335 0.571197,-0.357484 0.254872,-0.0361 0.59173,-0.05059 0.748585,-0.03223 0.280004,0.03277 0.271793,0.04789 -0.452491,0.831152 -0.405719,0.438767 -0.724179,0.839435 -0.707698,0.89038 0.0165,0.05095 0.240356,0.163122 0.49747,0.249302 0.257114,0.08615 0.69405,0.36158 0.970955,0.612017 0.415657,0.375921 0.503469,0.517051 0.503469,0.809241 0,0.585622 -0.685189,1.178563 -1.361937,1.178563 -0.357869,0 -0.84916,-0.48178 -0.975952,-0.95706 -0.06438,-0.241461 -0.153975,-0.439027 -0.19904,-0.439027 -0.122138,0 -0.466178,1.839751 -0.382514,2.045536 0.06361,0.156506 0.168624,0.170433 0.88832,0.117796 0.448887,-0.03286 1.137872,-0.153616 1.531078,-0.268415 z m -54.12028,-0.05023 c 0.203373,-0.06581 0.369769,-0.182415 0.369769,-0.259169 0,-0.186232 -1.454945,-0.185278 -1.93209,9e-4 -1.006808,0.393638 0.416521,0.628591 1.562321,0.2579 z m 5.155616,0.107885 c 0.721921,-0.358277 1.705815,-1.625333 2.240125,-2.884827 0.589994,-1.390758 0.525821,-2.57547 -0.170774,-3.152765 -0.446781,-0.370267 -0.748544,-0.453404 -1.625591,-0.447877 -0.874902,0.0054 -1.369054,0.167399 -1.809788,0.592869 -0.93508,0.902677 -0.795761,2.496744 0.257668,2.948168 0.735937,0.315362 1.974713,0.237293 1.974713,-0.124458 0,-0.04357 -0.216392,-0.175276 -0.480871,-0.292622 -0.635617,-0.282008 -1.017141,-0.76449 -1.077361,-1.362463 -0.06326,-0.628177 0.23691,-1.017925 0.783973,-1.017925 0.508947,0 0.931906,0.435949 1.096505,1.130184 0.233472,0.984715 -0.195237,2.129195 -1.366066,3.646833 -0.355606,0.460939 -0.646557,0.868539 -0.646557,0.905782 0,0.234764 0.410718,0.26422 0.824024,0.05915 z m 55.856443,-0.07481 c 0.159191,-0.144902 -0.243485,-0.381899 -0.64888,-0.381899 -0.189407,0 -0.589575,-0.0496 -0.889255,-0.110297 -0.445386,-0.09016 -0.572322,-0.08435 -0.695204,0.0316 -0.130007,0.122711 -0.122673,0.165526 0.05427,0.316658 0.373014,0.31863 1.877968,0.418052 2.179079,0.143948 z M 54.237402,85.624838 c 0.484355,-0.12074 1.250323,-0.760376 1.616188,-1.349644 0.409431,-0.659442 0.827411,-0.779632 8.278791,-2.380623 9.669893,-2.077647 10.935988,-2.358701 11.035503,-2.449697 0.06381,-0.05834 -0.0095,-0.522903 -0.198964,-1.263456 -0.164914,-0.644182 -0.309504,-1.182587 -0.321302,-1.196468 -0.01183,-0.01386 -3.273965,0.673071 -7.249257,1.526549 -7.86499,1.688584 -11.032349,2.315292 -11.923909,2.359332 l -0.575809,0.02845 -0.08719,-0.448741 c -0.08882,-0.457158 0.01736,-3.136956 0.292429,-7.379275 0.08357,-1.288887 0.152406,-2.910601 0.152977,-3.603811 0.0012,-1.649855 -0.0031,-1.655463 -1.392982,-1.74428 -1.018981,-0.06509 -1.024534,-0.06419 -1.079756,0.17325 -0.0694,0.298429 -0.199204,2.025578 -0.538814,7.169233 -0.335541,5.082026 -0.34756,5.151461 -1.01163,5.843608 -0.798105,0.831837 -0.984217,1.243911 -0.986337,2.183858 -0.0015,0.648098 0.04883,0.900759 0.268118,1.346826 0.388528,0.790354 0.828152,1.17011 1.442868,1.246396 0.274936,0.03412 0.571198,0.0785 0.658357,0.0987 0.221191,0.05113 1.135136,-0.03916 1.620718,-0.160197 z M 25.148051,83.442133 c 0.254349,-0.240085 0.258483,-0.290921 0.04683,-0.576134 -0.157532,-0.212285 -0.231313,-0.221629 -1.750148,-0.221629 -0.891015,0 -1.675209,0.04519 -1.790034,0.10323 -0.262948,0.132821 -0.275638,0.645434 -0.01946,0.786258 0.102123,0.05617 0.882437,0.103005 1.7432,0.104679 1.419879,0.0027 1.577087,-0.01467 1.769614,-0.196404 z m 59.487102,0.09621 c 0.130645,-0.06599 0.204352,-0.208594 0.204352,-0.395375 0,-0.186772 -0.07373,-0.32937 -0.204352,-0.395366 -0.113211,-0.05716 -0.870219,-0.10323 -1.697318,-0.10323 -0.827108,0 -1.584115,0.046 -1.697326,0.10323 -0.262951,0.132821 -0.275636,0.645434 -0.01946,0.786258 0.243857,0.134072 3.150034,0.13788 3.41411,0.0045 z m -60.80771,-3.236955 c 0,-0.143363 -0.116227,-0.234944 -0.415666,-0.327542 -0.644354,-0.199258 -1.600386,-0.269657 -1.695211,-0.124836 -0.14214,0.217083 0.240311,0.438524 0.973479,0.563647 0.929314,0.158604 1.137398,0.138241 1.137398,-0.111269 z m 59.877386,0.05996 c 0.824952,-0.08354 1.090097,-0.243739 0.771122,-0.465954 -0.260757,-0.181658 -0.837456,-0.182307 -1.473413,-0.0018 -0.653419,0.185611 -0.848549,0.336427 -0.681326,0.526611 0.08202,0.09328 0.219774,0.120326 0.397478,0.07805 0.149578,-0.03556 0.593343,-0.09727 0.986139,-0.137034 z m -0.344403,-3.035437 c 0.43829,-0.137835 0.686716,-0.270071 0.686716,-0.365541 0,-0.316253 -2.100557,-0.07706 -2.235371,0.254524 -0.03224,0.0794 -0.02928,0.21657 0.0067,0.304838 0.07773,0.191274 0.477174,0.141067 1.542093,-0.193821 z m -58.951915,0.0442 c 0,-0.241372 -0.64438,-0.492673 -1.47286,-0.574405 -0.652043,-0.06437 -0.900006,0.0623 -0.6262,0.319782 0.182693,0.171801 1.18195,0.428045 1.702877,0.436678 0.320619,0.0054 0.396183,-0.02944 0.396183,-0.182055 z m 0.889286,-2.689935 c 0.154135,-0.235403 -1.370656,-0.910814 -2.056226,-0.910814 -0.39028,0 -0.415578,0.230595 -0.05009,0.456627 0.580155,0.358798 1.97223,0.658973 2.106321,0.454187 z M 82.26679,74.515303 c 0.795663,-0.282684 0.987989,-0.403864 0.987989,-0.622523 0,-0.123422 -0.104961,-0.141103 -0.569184,-0.09587 -0.796226,0.0776 -1.649439,0.509768 -1.649439,0.835528 0,0.204434 0.444661,0.162105 1.230634,-0.11713 z M 26.257362,71.688912 c 0,-0.198322 -0.117077,-0.28037 -0.73954,-0.518302 -1.100507,-0.420672 -1.579515,-0.365136 -1.188548,0.13779 0.176406,0.226923 1.332174,0.672126 1.663965,0.64095 0.199794,-0.01872 0.264123,-0.08219 0.264123,-0.260438 z m 54.778794,0.07796 c 0.581573,-0.248483 1.056488,-0.661539 1.056488,-0.91888 0,-0.255154 -0.361045,-0.172045 -1.225246,0.282044 -0.704941,0.370411 -0.942494,0.580311 -0.837761,0.740256 0.104465,0.159549 0.4818,0.120775 1.006519,-0.10342 z M 28.974274,70.204349 c 0.0887,-0.09597 0.220567,-0.282476 0.29304,-0.414442 0.116779,-0.212645 0.103298,-0.260393 -0.118486,-0.419717 -0.637315,-0.457834 -2.545819,-1.406638 -2.92633,-1.45481 -0.365331,-0.04627 -0.442221,-0.02007 -0.597173,0.203112 -0.244944,0.352856 -0.134893,0.592292 0.462499,1.006203 0.692048,0.479502 2.233256,1.250465 2.503845,1.2525 0.121733,9e-4 0.293905,-0.07688 0.382605,-0.172846 z m 50.405148,-0.643012 c 1.43057,-0.809385 1.494691,-0.898229 1.132206,-1.568888 l -0.220156,-0.407321 -0.422916,0.203643 c -0.879469,0.423498 -2.277049,1.229858 -2.55651,1.475038 -0.331021,0.290407 -0.367283,0.568373 -0.117989,0.904315 0.262207,0.353343 0.706267,0.230046 2.185365,-0.606787 z M 29.337853,66.833728 c 0.07864,-0.193434 -0.288463,-0.579663 -0.908967,-0.956313 -0.417124,-0.253201 -0.956567,-0.382169 -0.956567,-0.228696 0,0.191174 0.305241,0.507868 0.863138,0.895528 0.681333,0.473426 0.901737,0.537073 1.002396,0.289481 z m 48.323278,-0.127024 c 0.258325,-0.154922 0.633639,-0.457815 0.834014,-0.673107 l 0.364316,-0.391432 -0.286184,-0.03169 c -0.554029,-0.06131 -1.970426,0.88414 -1.83257,1.223215 0.09347,0.230001 0.394322,0.188482 0.920424,-0.127024 z M 57.686695,64.819475 c 0.174421,-0.569859 0.263739,-2.077342 0.127781,-2.156653 -0.06266,-0.03655 -0.299883,0.11081 -0.527155,0.327488 -0.420279,0.400669 -1.362381,0.758567 -1.814658,0.689357 -0.172276,-0.02638 -0.119649,-0.101259 0.302679,-0.430782 0.666506,-0.520049 1.325995,-1.357998 1.60889,-2.044267 0.295781,-0.717515 0.321927,-1.651286 0.05693,-2.033067 -0.276463,-0.398301 -1.181143,-0.75827 -2.085531,-0.829839 -0.597821,-0.04726 -0.813494,-0.110117 -1.030753,-0.300166 -0.260764,-0.228102 -0.281825,-0.231199 -0.413823,-0.06077 -0.20728,0.26756 -0.140163,2.176827 0.07652,2.176827 0.08576,0 0.19858,-0.134621 0.25071,-0.299158 0.225059,-0.71035 0.257842,-0.747899 0.652829,-0.747899 0.854928,0 1.317624,0.525532 1.317624,1.496563 0,0.678257 -0.266717,1.139538 -1.192833,2.062983 -1.159183,1.155841 -1.449838,1.326733 -2.256596,1.326733 h -0.670864 v -2.842017 -2.84202 h -0.239834 c -0.33733,0 -1.616484,0.345736 -2.230862,0.602969 -0.585673,0.245207 -0.512868,0.3892 0.19925,0.39407 0.966249,0.0063 0.898015,-0.175069 0.898015,2.390867 v 2.267724 l -0.65568,0.06473 c -0.712761,0.07031 -0.943786,0.189148 -0.740599,0.380935 0.08876,0.08381 1.180473,0.136287 3.760201,0.180884 3.178354,0.05491 3.66977,0.08426 3.910715,0.233279 0.151566,0.09373 0.275574,0.214265 0.275574,0.267847 0,0.05356 0.06908,0.09742 0.153507,0.09742 0.08661,0 0.203389,-0.162979 0.267965,-0.373949 z M 31.381317,64.558694 c 0,-0.316847 -0.358288,-0.727256 -0.937651,-1.074055 -1.051755,-0.629571 -1.154166,-0.207423 -0.16612,0.684793 0.737119,0.665626 1.103771,0.794936 1.103771,0.389262 z m 44.16684,-0.145532 c 0.645636,-0.387174 1.291827,-0.979881 1.237729,-1.135307 -0.09146,-0.262833 -0.564081,-0.196198 -0.996724,0.140536 -0.497213,0.386985 -0.986272,0.95372 -0.986272,1.142914 0,0.206019 0.231372,0.160026 0.745267,-0.148143 z M 33.599938,62.52036 c 0,-0.216687 -0.363897,-0.695829 -1.016972,-1.339031 -0.517501,-0.509687 -0.779053,-0.600098 -0.779053,-0.269315 0,0.392999 0.4916,1.047507 1.137292,1.514181 0.439656,0.317756 0.658733,0.349076 0.658733,0.09416 z m 39.857877,-0.206389 c 0.554972,-0.579815 0.975446,-1.298681 0.836388,-1.429936 -0.145925,-0.137736 -0.49025,0.06824 -1.076278,0.643922 -0.4422,0.434373 -0.597367,0.758296 -0.489897,1.02266 0.100974,0.248357 0.339652,0.170955 0.729787,-0.236646 z M 35.892267,60.640755 c 0.159764,-0.39298 -1.18947,-2.012794 -1.462166,-1.755399 -0.157211,0.148386 0.302389,1.030204 0.808974,1.552144 0.392429,0.404323 0.551344,0.453764 0.653192,0.203255 z m 35.042047,-0.233746 c 0.577195,-0.502189 1.013864,-1.238753 0.834653,-1.407908 -0.187175,-0.176662 -0.586685,0.11172 -1.143089,0.825112 -0.754251,0.967089 -0.558463,1.337032 0.308436,0.582796 z m -31.622405,-0.0036 c 0.359667,-0.181686 0.252126,-0.660882 -0.399042,-1.778076 -0.572094,-0.981537 -1.06443,-1.609345 -1.261434,-1.608525 -0.04932,2.16e-4 -0.249949,0.09261 -0.445842,0.205326 -0.316084,0.181892 -0.349786,0.242091 -0.299442,0.534902 0.06287,0.365722 0.993667,1.98189 1.411087,2.45013 0.279858,0.313931 0.626368,0.382286 0.994673,0.196243 z M 67.831634,60.11825 c 0.51957,-0.515539 1.477362,-2.0853 1.477457,-2.421467 7.7e-5,-0.292162 -0.424613,-0.680345 -0.744331,-0.680345 -0.260834,0 -0.620525,0.433122 -1.126551,1.356594 -0.593215,1.08258 -0.801401,1.692914 -0.661571,1.939525 0.182899,0.322573 0.614102,0.243154 1.054996,-0.194307 z M 41.417933,57.778047 c 0,-0.174592 -0.594422,-1.537524 -0.799266,-1.832612 -0.251215,-0.361887 -0.468518,-0.287059 -0.468518,0.16134 0,0.451469 0.231001,1.025478 0.596834,1.48305 0.260639,0.326003 0.67095,0.441107 0.67095,0.188222 z m 24.021343,-0.188222 c 0.533624,-0.662205 0.888282,-1.869747 0.549149,-1.869747 -0.188727,0 -0.509873,0.419592 -0.851864,1.11299 -0.464489,0.941774 -0.259441,1.454369 0.302715,0.756757 z M 53.574467,56.913207 c 0.189179,-0.09557 0.204352,-0.223664 0.204352,-1.72516 0,-1.128537 -0.03857,-1.658326 -0.126777,-1.741589 -0.164017,-0.154814 -0.850213,-0.154814 -1.014229,0 -0.08786,0.08291 -0.126778,0.601169 -0.126778,1.688115 0,1.292912 0.02917,1.595985 0.166021,1.72516 0.190412,0.179724 0.599252,0.204093 0.897411,0.05347 z m -9.367122,-0.256468 c 0.08522,-0.209611 -0.105086,-0.862994 -0.424806,-1.458528 -0.423284,-0.788436 -0.802723,-0.539242 -0.520696,0.341964 0.17215,0.537901 0.333607,0.853947 0.563133,1.102313 0.200264,0.216696 0.298572,0.22036 0.382369,0.01422 z m 18.445361,-0.363714 c 0.352912,-0.753048 0.485859,-1.351723 0.331939,-1.49478 -0.304744,-0.283233 -0.857684,0.711349 -0.858999,1.545076 -7.57e-4,0.520661 0.271671,0.494663 0.52706,-0.05032 z M 47.118334,55.445848 c -0.0066,-0.81701 -0.293036,-1.560974 -0.6177,-1.604294 -0.246132,-0.03286 -0.2507,-0.02052 -0.179717,0.484553 0.07985,0.568139 0.34114,1.372474 0.509527,1.568473 0.210159,0.244631 0.292447,0.116365 0.28789,-0.448732 z m 12.491824,0.06653 c 0.09853,-0.242272 0.181727,-0.720964 0.184885,-1.063747 0.0051,-0.545589 -0.01903,-0.623252 -0.193011,-0.623252 -0.215793,0 -0.360863,0.400749 -0.49482,1.366929 -0.127789,0.921707 0.178905,1.116887 0.502946,0.32007 z m -9.401179,-0.288841 c 0.06481,-0.416801 -0.09831,-1.593419 -0.243857,-1.758946 -0.06665,-0.0758 -0.193713,-0.137817 -0.282367,-0.137817 -0.136127,0 -0.151259,0.12019 -0.09729,0.772835 0.07255,0.877371 0.241335,1.421006 0.441172,1.421006 0.07488,0 0.156933,-0.133685 0.182339,-0.297078 z m 6.356466,-0.275554 c 0.09606,-0.526224 0.0263,-1.262465 -0.144096,-1.520653 -0.08019,-0.121514 -0.123144,-0.125178 -0.234626,-0.01998 -0.150509,0.141985 -0.19423,1.631085 -0.05717,1.947077 0.135724,0.312896 0.339217,0.123162 0.435889,-0.406421 z"
         id="path4293" />
      <path
         style="fill:#aa0000;stroke:none;stroke-width:0.0775874;stroke-opacity:1;paint-order:markers stroke fill"
         d="m 52.654528,84.94551 c -1.215535,-0.284736 -1.91778,-1.585857 -1.380376,-2.557573 0.342654,-0.619579 1.185399,-1.1397 1.846638,-1.1397 0.477635,0 1.34285,0.463208 1.652183,0.884528 0.583864,0.795233 0.547764,1.276743 -0.158865,2.11887 -0.511942,0.610108 -1.230694,0.864614 -1.95958,0.693875 z"
         id="path4332" />
      <path
         style="fill:#00ff00;stroke:none;stroke-width:0.0775874;stroke-opacity:1;paint-order:markers stroke fill"
         d="m 50.292416,122.97229 c -0.203373,-0.0215 -0.892731,-0.0889 -1.531904,-0.14963 -7.594317,-0.72191 -15.457347,-3.77325 -21.917924,-8.50549 -2.04995,-1.50155 -5.346598,-4.69304 -7.32555,-7.09186 -2.734296,-3.31444 -5.669538,-8.749812 -6.928585,-12.830092 -2.381056,-7.716455 -2.268109,-15.860295 0.324787,-23.418141 4.774969,-13.91822 17.102201,-24.19148 32.413692,-27.012904 3.730957,-0.687493 8.362533,-0.882286 12.096763,-0.508751 9.505008,0.950777 18.557611,5.017047 25.306021,11.367012 5.826527,5.482515 9.86345,12.383289 11.68262,19.970421 1.13377,4.728584 1.151214,11.751791 0.04111,16.559641 -1.095868,4.746292 -3.268662,9.572334 -6.187677,13.743594 -6.148992,8.78692 -15.928779,15.02326 -26.870231,17.13452 -2.862573,0.55237 -4.533922,0.71328 -7.775217,0.7486 -1.626989,0.0177 -3.124558,0.0146 -3.327931,-0.007 z m 6.655859,-5.53287 c 6.678827,-0.50941 13.348032,-3.06002 18.963921,-7.25268 1.562437,-1.16647 4.449282,-3.88419 5.687927,-5.35472 3.572739,-4.24156 6.04674,-9.130772 7.291413,-14.40955 0.375542,-1.592699 0.492588,-2.603881 0.59155,-5.110645 0.135834,-3.440246 -0.05837,-7.100618 -0.476069,-8.975037 C 87.087436,67.723513 82.1119,60.35321 74.809433,55.305816 c -4.096858,-2.831713 -9.31325,-5.031 -14.251956,-6.008793 -1.781114,-0.352631 -2.6626,-0.450847 -5.052297,-0.5629 -2.365853,-0.110945 -5.850136,0.0018 -7.872785,0.253858 -1.527755,0.190679 -3.878714,0.711583 -5.633394,1.248188 -5.801994,1.77433 -10.488869,4.469369 -14.739263,8.475342 -5.909595,5.569766 -9.345612,12.194501 -10.421833,20.093582 -0.236508,1.735891 -0.27142,6.789083 -0.05822,8.426344 0.61145,4.695509 2.093596,9.014521 4.401484,12.825983 3.795475,6.26823 9.323285,11.14702 16.135981,14.24149 3.902954,1.7728 8.428061,2.96476 12.341372,3.25085 1.304846,0.0954 5.406316,0.0333 7.289752,-0.11034 z"
         id="path4371" />
      <path
         style="fill:#501616;stroke:none;stroke-width:0.0775874;stroke-opacity:1;paint-order:markers stroke fill"
         d="m 77.69766,117.60615 c -0.197561,-0.18647 -0.359204,-0.40891 -0.359204,-0.4943 0,-0.17597 0.914434,-0.88701 2.520982,-1.96026 1.204234,-0.80449 1.237644,-0.80823 1.687389,-0.18863 l 0.246556,0.33966 -0.51068,0.42943 c -0.878306,0.73856 -2.932005,2.21315 -3.082317,2.21315 -0.07897,0 -0.305165,-0.15257 -0.502726,-0.33905 z"
         id="path4410" />
      <path
         style="fill:#501616;stroke:none;stroke-width:0.0775874;stroke-opacity:1;paint-order:markers stroke fill"
         d="m 88.842933,128.48009 c -0.255312,-0.18402 -1.086426,-1.00297 -1.846934,-1.81988 -1.133732,-1.21784 -6.935919,-7.65876 -7.414839,-8.23111 -0.116988,-0.13981 0.01593,-0.26649 1.026549,-0.97837 0.638513,-0.44978 1.206762,-0.79104 1.262776,-0.75836 0.206517,0.12047 5.199736,6.99017 6.54401,9.00329 0.823122,1.23265 1.496141,2.3873 1.496141,2.56679 0,0.13505 -0.390688,0.55223 -0.517166,0.55223 -0.0475,0 -0.295226,-0.15056 -0.550537,-0.33459 z"
         id="path4449" />
      <path
         style="fill:#501616;stroke:none;stroke-width:0.0775874;stroke-opacity:1;paint-order:markers stroke fill"
         d="m 16.32159,128.56991 c -0.142625,-0.13462 -0.259318,-0.36075 -0.259318,-0.50251 0,-0.39279 6.600363,-9.61888 7.601216,-10.62509 0.694444,-0.69817 0.893295,-0.67837 1.991079,0.19826 l 0.867284,0.69257 -2.756592,3.07186 c -4.796311,5.34487 -6.75658,7.40968 -7.034504,7.40968 -0.08241,0 -0.266537,-0.11014 -0.409165,-0.24477 z"
         id="path4488" />
      <path
         style="fill:#501616;stroke:none;stroke-width:0.0775874;stroke-opacity:1;paint-order:markers stroke fill"
         d="m 25.913759,116.68429 -1.822683,-1.34621 0.448883,-0.54249 c 0.246885,-0.29838 0.503509,-0.52272 0.570277,-0.49853 0.137313,0.0497 2.622946,1.86882 3.243014,2.37337 l 0.405508,0.32996 -0.36296,0.49734 c -0.199628,0.27353 -0.429651,0.50531 -0.51116,0.51505 -0.08151,0.01 -0.968405,-0.58807 -1.970879,-1.32849 z"
         id="path4527" />
      <path
         style="fill:#ff6600;stroke:none;stroke-width:0.0775874;stroke-opacity:1;paint-order:markers stroke fill"
         d="m 15.173362,53.949889 c -0.283015,-0.852111 -0.929147,-3.49174 -1.080127,-4.412619 -0.258297,-1.575424 -0.255753,-4.36831 0.0052,-5.733897 1.129997,-5.912927 5.654526,-10.164268 12.370203,-11.6233 1.333886,-0.289804 3.783097,-0.364821 5.125213,-0.156992 2.937934,0.454952 6.006456,1.727779 8.581063,3.559464 0.937175,0.666733 3.03729,2.407233 3.120042,2.585768 0.01549,0.03349 -0.449279,0.117067 -1.032855,0.185809 -5.330568,0.627924 -15.326442,5.530038 -22.187999,10.881307 -1.379304,1.075711 -3.671743,3.312431 -4.280329,4.176307 -0.276135,0.391963 -0.515654,0.712655 -0.532266,0.712655 -0.01661,0 -0.05629,-0.0785 -0.08817,-0.174502 z"
         id="path4566" />
      <path
         style="fill:#ff6600;stroke:none;stroke-width:0.0775874;stroke-opacity:1;paint-order:markers stroke fill"
         d="m 16.897379,56.111591 c -0.562144,-0.08291 -0.918056,-0.266794 -1.002551,-0.518077 -0.179477,-0.53375 0.615647,-1.724683 2.236666,-3.350051 5.738487,-5.753882 19.728414,-13.077066 24.98192,-13.077066 0.815475,0 1.223545,0.09931 1.393123,0.339011 0.276082,0.390271 -0.198745,1.505223 -1.124788,2.64116 -0.86775,1.064422 -1.724352,1.580294 -3.713979,2.236684 -3.461017,1.141806 -7.508388,3.007682 -10.610721,4.891653 -1.226392,0.744757 -3.596856,2.528792 -5.440902,4.094889 -1.677792,1.424904 -2.26587,1.857972 -2.984995,2.198153 -0.908644,0.429836 -2.718396,0.693345 -3.733773,0.543644 z"
         id="path4605" />
      <path
         style="fill:#ff6600;stroke:none;stroke-width:0.0775874;stroke-opacity:1;paint-order:markers stroke fill"
         d="m 87.639195,55.980544 c -1.007598,-0.156038 -1.96582,-0.410589 -2.482976,-0.659622 -0.207003,-0.09968 -1.203385,-0.862219 -2.214178,-1.694533 -3.140725,-2.586156 -5.058141,-3.937979 -7.752183,-5.465509 -2.631065,-1.49181 -5.113421,-2.603846 -7.835196,-3.509988 -1.844836,-0.614187 -2.219291,-0.819918 -3.185597,-1.750277 -1.517479,-1.46103 -2.324826,-2.740357 -2.043018,-3.237368 0.425778,-0.750924 2.535716,-0.638547 5.492738,0.292559 3.713456,1.16929 9.251156,3.859333 13.614218,6.613374 4.865739,3.071338 8.556554,6.263461 9.372064,8.105723 0.199136,0.44984 0.194014,1.086424 -0.01001,1.246252 -0.230905,0.180876 -1.94849,0.215382 -2.955868,0.05942 z"
         id="path4644" />
      <path
         style="fill:#ff6600;stroke:none;stroke-width:0.0775874;stroke-opacity:1;paint-order:markers stroke fill"
         d="M 90.343871,52.685704 C 87.415796,49.215768 80.540069,44.588506 73.376631,41.26701 69.522027,39.479733 66.759975,38.599914 64.095213,38.310533 l -0.618234,-0.06716 0.935181,-0.893449 c 2.834176,-2.707723 6.745772,-4.666324 10.549197,-5.282158 1.568627,-0.253993 3.857779,-0.205929 5.424985,0.113889 4.700367,0.959203 8.835347,3.823126 10.784924,7.469725 0.437784,0.818855 1.132149,2.49858 1.331427,3.220831 0.556651,2.017476 0.40426,6.165605 -0.334388,9.10198 -0.330296,1.313049 -0.541458,1.851022 -0.726544,1.851022 -0.07497,0 -0.569021,-0.512784 -1.09789,-1.139529 z"
         id="path4683" />
      <path
         style="fill:#f2f2f2;stroke:none;stroke-width:0.0775874;stroke-opacity:1;paint-order:markers stroke fill"
         d="m 85.139385,32.898255 c -2.237678,-0.968799 -2.789885,-1.407647 -4.168551,-3.312809 -1.6259,-2.246829 -2.46186,-3.84437 -3.059818,-5.847404 -0.448763,-1.503271 -0.855731,-2.495304 -1.480319,-3.608464 -2.33436,-4.160375 -6.69066,-6.589541 -13.153575,-7.334716 -6.539149,-0.753961 -17.339926,-0.215546 -23.064252,1.149747 -3.688739,0.879791 -5.892899,2.431479 -7.353552,5.176756 -0.48268,0.907187 -0.775389,1.673394 -1.327003,3.473615 -1.054949,3.442871 -2.156695,5.35822 -4.282146,7.444375 -1.025019,1.006068 -1.644184,1.358295 -3.339267,1.899661 -2.675461,0.85446 -2.70062,0.702023 -0.189107,-1.145722 1.997744,-1.469754 4.03761,-3.671922 4.762935,-5.141887 0.190231,-0.385531 0.68763,-1.754188 1.105328,-3.04146 1.355048,-4.176036 1.965479,-5.321191 3.791863,-7.113451 2.262597,-2.220318 5.578648,-3.392526 11.733715,-4.147804 4.346952,-0.53341 8.122249,-0.743151 12.094976,-0.671956 6.615123,0.11855 10.537252,0.805681 14.053044,2.462 4.050897,1.908402 6.446002,4.719222 8.242901,9.673576 1.022868,2.820213 1.364027,3.307081 5.201854,7.423438 1.661046,1.781596 2.253787,2.542179 2.219347,2.84772 -0.04683,0.415702 -0.511558,0.367575 -1.788373,-0.185215 z"
         id="path4722" />
      <path
         style="fill:#000000;stroke:none;stroke-width:0.0360124;stroke-opacity:1;paint-order:markers stroke fill"
         d="m 75.310051,86.495718 c -0.0639,-0.112629 -0.0019,-0.680354 0.148347,-1.349905 0.172049,-0.768883 0.19224,-0.78832 0.3424,-0.329442 0.125199,0.382601 0.235721,0.553808 0.513484,0.795476 0.249703,0.217255 0.387969,0.2616 0.692724,0.22217 0.630453,-0.08156 1.197767,-0.643778 1.197767,-1.187007 0,-0.473885 -0.637482,-1.070022 -1.567101,-1.465469 -0.216903,-0.09227 -0.394378,-0.183531 -0.394378,-0.202823 0,-0.05392 0.390106,-0.528854 0.834719,-1.016224 0.416392,-0.456438 0.531329,-0.624125 0.468066,-0.682901 -0.06018,-0.0559 -0.966786,-0.02224 -1.178549,0.04375 -0.158534,0.04942 -0.222302,0.107677 -0.344783,0.315173 -0.178935,0.303101 -0.31537,0.35012 -0.450613,0.1553 -0.231181,-0.333034 0.01564,-1.986526 0.323276,-2.166006 0.02518,-0.01467 0.09723,0.06014 0.16007,0.166328 0.184122,0.311077 0.284477,0.354108 0.947892,0.406493 0.323639,0.02557 1.035295,0.06077 1.581445,0.07823 0.546151,0.01747 0.992996,0.03925 0.992996,0.04843 0,0.0092 -0.272546,0.325544 -0.605656,0.703085 -0.7027,0.796431 -1.012566,1.176312 -1.012566,1.241364 0,0.02539 0.171018,0.162807 0.380044,0.305324 0.725237,0.494482 1.02857,0.882088 1.137671,1.453747 0.06915,0.362247 0.0086,0.748016 -0.173708,1.09855 -0.170179,0.328047 -0.641059,0.757829 -1.037002,0.946483 -0.596013,0.283979 -1.731748,0.515223 -2.530501,0.515223 -0.325375,0 -0.378785,-0.01197 -0.426044,-0.0953 z"
         id="path5373" />
      <path
         style="fill:#000000;stroke:none;stroke-width:0.0360124;stroke-opacity:1;paint-order:markers stroke fill"
         d="m 81.817008,83.581759 c -0.4517,-0.02809 -0.547305,-0.04807 -0.637483,-0.133145 -0.147079,-0.138825 -0.147575,-0.472399 -9.53e-4,-0.610828 0.09413,-0.08885 0.191075,-0.104428 0.923361,-0.148323 0.573342,-0.03439 1.067847,-0.03457 1.65251,-4.78e-4 0.750875,0.04366 0.844906,0.05852 0.940053,0.148323 0.147279,0.139015 0.147002,0.472238 -5.06e-4,0.611477 -0.09137,0.08624 -0.187289,0.105436 -0.686525,0.137178 -0.681374,0.0433 -1.449597,0.04186 -2.190496,-0.0045 z"
         id="path5412" />
      <path
         style="fill:#000000;stroke:none;stroke-width:0.0360124;stroke-opacity:1;paint-order:markers stroke fill"
         d="m 82.344207,80.384415 c -0.09175,-0.09574 -0.09127,-0.09832 0.04187,-0.206388 0.240271,-0.195082 0.87905,-0.358988 1.417284,-0.363669 0.409821,-0.0036 0.493017,0.0091 0.612961,0.09344 0.316906,0.22279 0.141214,0.308061 -0.946728,0.459472 -0.993616,0.138285 -1.00899,0.138519 -1.125359,0.01719 z"
         id="path5451" />
      <path
         style="fill:#000000;stroke:none;stroke-width:0.0360124;stroke-opacity:1;paint-order:markers stroke fill"
         d="m 83.134386,86.40528 c -0.350773,-0.05888 -0.631636,-0.169821 -0.762139,-0.30094 -0.110206,-0.11072 -0.110912,-0.116788 -0.02432,-0.207117 0.09905,-0.103312 0.351393,-0.121028 0.686982,-0.04825 0.107879,0.02341 0.412367,0.06329 0.676634,0.08867 0.711627,0.06833 1.065443,0.271142 0.73509,0.421293 -0.165115,0.07508 -0.971698,0.103518 -1.312266,0.04627 z"
         id="path5490" />
      <path
         style="fill:#000000;stroke:none;stroke-width:0.0360124;stroke-opacity:1;paint-order:markers stroke fill"
         d="m 83.078143,89.460342 c -0.697693,-0.152662 -1.129126,-0.32946 -1.209318,-0.495589 -0.04721,-0.09787 -0.04139,-0.125908 0.03729,-0.180255 0.121299,-0.08372 0.335017,-0.08129 0.798439,0.0091 0.56967,0.111071 1.123422,0.288282 1.268259,0.40588 0.113126,0.09184 0.122148,0.118364 0.07096,0.208603 -0.05198,0.09176 -0.246585,0.199421 -0.337812,0.186934 -0.0185,-0.0027 -0.301006,-0.06311 -0.627849,-0.13463 z"
         id="path5529" />
      <path
         style="fill:#000000;stroke:none;stroke-width:0.0360124;stroke-opacity:1;paint-order:markers stroke fill"
         d="m 82.395462,92.355954 c -0.724284,-0.106264 -1.24929,-0.318423 -1.321842,-0.534165 -0.04797,-0.142633 0.0577,-0.278245 0.216732,-0.278245 0.404641,0 2.01427,0.606625 2.01427,0.759125 0,0.128909 -0.281349,0.145399 -0.90916,0.05329 z"
         id="path5568" />
      <path
         style="fill:#000000;stroke:none;stroke-width:0.0360124;stroke-opacity:1;paint-order:markers stroke fill"
         d="m 81.357926,95.366358 c -0.613696,-0.21526 -1.338781,-0.70944 -1.338781,-0.91247 0,-0.37749 1.565108,0.22077 1.965285,0.75123 0.208606,0.27652 -0.08345,0.35169 -0.626504,0.16124 z"
         id="path5607" />
      <path
         style="fill:#000000;stroke:none;stroke-width:0.0360124;stroke-opacity:1;paint-order:markers stroke fill"
         d="m 79.675888,98.308978 c -0.724151,-0.29208 -2.113213,-1.12055 -2.425064,-1.44635 -0.142033,-0.14839 -0.173898,-0.21794 -0.173898,-0.37953 0,-0.2373 0.103406,-0.39108 0.320529,-0.47672 0.1384,-0.0545 0.196837,-0.0532 0.422668,0.01 0.550461,0.15337 2.356459,1.09435 2.807787,1.46294 l 0.191944,0.15675 -0.11839,0.2272 c -0.149454,0.28681 -0.450565,0.5775 -0.5965,0.57584 -0.06066,-7.1e-4 -0.253766,-0.0591 -0.429076,-0.12981 z"
         id="path5685" />
      <path
         style="fill:#000000;stroke:none;stroke-width:0.0360124;stroke-opacity:1;paint-order:markers stroke fill"
         d="m 78.080146,100.57213 c -0.50204,-0.23988 -1.01023,-0.597002 -1.198321,-0.842082 -0.185897,-0.24222 -0.190265,-0.35256 -0.01555,-0.39393 0.171438,-0.0406 0.801042,0.25795 1.341394,0.63611 0.435753,0.304962 0.550575,0.441712 0.527866,0.628672 -0.02394,0.1973 -0.198219,0.18966 -0.655346,-0.0288 z"
         id="path5724" />
      <path
         style="fill:#000000;stroke:none;stroke-width:0.0360124;stroke-opacity:1;paint-order:markers stroke fill"
         d="m 76.101603,102.99303 c -0.461523,-0.21708 -1.280382,-1.03416 -1.280382,-1.2776 0,-0.0804 0.02184,-0.0891 0.158181,-0.0634 0.459282,0.0867 1.599729,0.91441 1.760466,1.2777 0.09242,0.20882 -0.255522,0.24333 -0.638265,0.0633 z"
         id="path5763" />
      <path
         style="fill:#000000;stroke:none;stroke-width:0.0360124;stroke-opacity:1;paint-order:markers stroke fill"
         d="m 73.986244,105.3514 c -0.712428,-0.45672 -1.34476,-1.2684 -1.25401,-1.60968 0.05188,-0.19514 0.229922,-0.15189 0.559179,0.13583 0.45704,0.3994 1.107685,1.36362 1.015323,1.50468 -0.04588,0.07 -0.183875,0.0567 -0.320492,-0.0308 z"
         id="path5802" />
      <path
         style="fill:#000000;stroke:none;stroke-width:0.0360124;stroke-opacity:1;paint-order:markers stroke fill"
         d="m 71.462191,107.24062 c -0.46801,-0.27313 -1.201411,-1.23656 -1.201411,-1.57822 0,-0.11684 0.01955,-0.14071 0.115233,-0.14071 0.258287,0 0.785076,0.52415 1.230042,1.22385 0.182883,0.28757 0.214853,0.43246 0.116025,0.52573 -0.0763,0.072 -0.08593,0.0708 -0.259889,-0.0306 z"
         id="path5841" />
      <path
         style="fill:#000000;stroke:none;stroke-width:0.0360124;stroke-opacity:1;paint-order:markers stroke fill"
         d="m 68.26485,109.07409 c -0.239984,-0.23786 -0.591563,-0.78332 -1.029241,-1.5968 -0.459029,-0.85315 -0.582683,-1.1854 -0.509128,-1.36801 0.06243,-0.155 0.244551,-0.26565 0.487936,-0.29646 0.179137,-0.0227 0.213188,-0.007 0.449584,0.20088 0.411309,0.3625 1.574302,2.09747 1.645243,2.45438 0.04559,0.22932 -0.01564,0.33065 -0.333176,0.55127 -0.360225,0.25031 -0.502841,0.26128 -0.711218,0.0547 z"
         id="path5880" />
      <path
         style="fill:#000000;stroke:none;stroke-width:0.0360124;stroke-opacity:1;paint-order:markers stroke fill"
         d="m 51.896415,108.32987 c -0.459104,-0.14321 -0.766195,-0.40274 -0.984333,-0.83185 -0.208868,-0.4109 -0.285552,-0.8557 -0.252838,-1.4666 0.05964,-1.11363 0.653121,-2.09682 2.081824,-3.44884 0.623251,-0.5898 1.049687,-0.85628 1.370263,-0.85628 0.113647,0 0.219868,0.0203 0.236047,0.0449 0.04876,0.0744 -0.08801,0.27461 -0.586102,0.85764 -0.864138,1.01149 -1.301959,1.70227 -1.60752,2.53629 -0.141028,0.38493 -0.156212,0.47946 -0.157663,0.98139 -0.0015,0.5045 0.01012,0.57876 0.126354,0.80998 0.32235,0.64133 0.98489,0.95865 1.421718,0.68093 0.268964,-0.171 0.40241,-0.45155 0.427246,-0.89819 0.02989,-0.53762 -0.102945,-0.7911 -0.621657,-1.18623 -0.205988,-0.15692 -0.47,-0.37282 -0.586693,-0.47978 -0.391655,-0.359 -0.206721,-0.50728 0.579947,-0.46499 0.723422,0.0389 1.496768,0.39471 1.80138,0.82884 0.118421,0.16878 0.137656,0.24642 0.151961,0.61334 0.04472,1.14692 -0.436323,1.83022 -1.536527,2.18259 -0.329355,0.10548 -0.494572,0.12824 -1.029776,0.14184 -0.438998,0.0112 -0.698554,-0.003 -0.833631,-0.045 z"
         id="path5919" />
      <path
         style="fill:#000000;stroke:none;stroke-width:0.0360124;stroke-opacity:1;paint-order:markers stroke fill"
         d="m 52.754817,112.87008 c -0.0711,-0.0355 -0.135418,-0.11858 -0.15357,-0.19856 -0.05355,-0.23601 -0.04634,-2.85466 0.0084,-3.04064 0.06755,-0.22956 0.207474,-0.31379 0.521312,-0.31379 0.349692,0 0.495671,0.0714 0.559682,0.27376 0.03413,0.10792 0.04684,0.68733 0.03633,1.65705 -0.01888,1.74168 0.01141,1.64428 -0.518954,1.66821 -0.208122,0.009 -0.376221,-0.008 -0.453183,-0.046 z"
         id="path5958" />
      <path
         style="fill:#000000;stroke:none;stroke-width:0.0360124;stroke-opacity:1;paint-order:markers stroke fill"
         d="m 56.160135,112.76682 c -0.05121,-0.11568 -0.07045,-0.34513 -0.06892,-0.82156 0.0023,-0.71651 0.04714,-1.04316 0.151742,-1.10565 0.207127,-0.12372 0.303051,0.18784 0.307875,1.00002 0.0034,0.57373 -0.0085,0.67319 -0.103601,0.86785 -0.05909,0.12092 -0.131885,0.21986 -0.161748,0.21986 -0.02986,0 -0.08627,-0.0722 -0.12535,-0.16052 z"
         id="path5997" />
      <path
         style="fill:#000000;stroke:none;stroke-width:0.0360124;stroke-opacity:1;paint-order:markers stroke fill"
         d="m 59.405526,112.23477 c -0.09492,-0.22392 -0.325186,-1.2709 -0.325186,-1.47857 0,-0.1672 0.108858,-0.43934 0.19609,-0.49023 0.182485,-0.10646 0.424248,0.5585 0.47118,1.29595 0.04413,0.69336 -0.161738,1.09828 -0.342084,0.67285 z"
         id="path6036" />
      <path
         style="fill:#000000;stroke:none;stroke-width:0.0360124;stroke-opacity:1;paint-order:markers stroke fill"
         d="m 62.63754,111.34746 c -0.520446,-0.58381 -0.741092,-1.94348 -0.277374,-1.70924 0.264918,0.13383 0.752808,1.46629 0.639704,1.74708 -0.06035,0.14984 -0.208845,0.13433 -0.36233,-0.0378 z"
         id="path6075" />
      <path
         style="fill:#000000;stroke:none;stroke-width:0.0360124;stroke-opacity:1;paint-order:markers stroke fill"
         d="m 65.706748,110.35832 c -0.168014,-0.18061 -0.581845,-0.96292 -0.714827,-1.3513 -0.09987,-0.29168 -0.08631,-0.58554 0.02798,-0.60595 0.187046,-0.0334 0.666205,0.61978 0.937742,1.27834 0.174121,0.4223 0.17755,0.80891 0.0074,0.83184 -0.06838,0.009 -0.15535,-0.0423 -0.258276,-0.15293 z"
         id="path6114" />
      <path
         style="fill:#000000;stroke:none;stroke-width:0.0360124;stroke-opacity:1;paint-order:markers stroke fill"
         d="m 49.601351,112.89262 c -0.06516,-0.10963 -0.07781,-0.31371 -0.03146,-0.50769 0.02908,-0.12172 0.07243,-0.44675 0.09632,-0.7223 0.04902,-0.56521 0.152272,-0.83224 0.331044,-0.85619 0.369892,-0.0495 0.322296,1.28594 -0.06858,1.92419 -0.110909,0.1811 -0.269362,0.25952 -0.327327,0.16199 z"
         id="path6153" />
      <path
         style="fill:#000000;stroke:none;stroke-width:0.0360124;stroke-opacity:1;paint-order:markers stroke fill"
         d="m 46.298259,112.34594 c -0.04412,-0.10852 0.01969,-0.53045 0.160304,-1.06014 0.223945,-0.84357 0.509017,-1.21523 0.622499,-0.81158 0.104646,0.37222 -0.14394,1.64931 -0.360902,1.8541 -0.115456,0.10897 -0.380263,0.12004 -0.421901,0.0176 z"
         id="path6192" />
      <path
         style="fill:#000000;stroke:none;stroke-width:0.0360124;stroke-opacity:1;paint-order:markers stroke fill"
         d="m 40.249986,110.4972 c -0.08787,-0.0999 -0.07157,-0.60452 0.02854,-0.88385 0.197303,-0.55051 0.525682,-1.0161 0.816932,-1.15826 0.175133,-0.0855 0.282518,-0.0549 0.282518,0.0804 0,0.1331 -0.447253,1.1824 -0.676807,1.58786 -0.209141,0.36939 -0.351427,0.48728 -0.451184,0.37382 z"
         id="path6270" />
      <path
         style="fill:#000000;stroke:none;stroke-width:0.0360124;stroke-opacity:1;paint-order:markers stroke fill"
         d="m 43.225036,111.50792 c -0.06691,-0.0632 -0.02936,-0.47872 0.07101,-0.78583 0.213785,-0.65415 0.567999,-1.17809 0.751521,-1.11161 0.103572,0.0375 0.10259,0.48538 -0.0018,0.82063 -0.188474,0.60528 -0.662036,1.2266 -0.820733,1.07681 z"
         id="path6309" />
      <path
         style="fill:#000000;stroke:none;stroke-width:0.0360124;stroke-opacity:1;paint-order:markers stroke fill"
         d="m 37.376802,109.13902 c -0.413276,-0.25414 -0.479863,-0.33685 -0.448557,-0.55716 0.05118,-0.36016 0.984984,-2.0049 1.394957,-2.45698 0.303146,-0.33429 0.796513,-0.41238 1.042681,-0.16506 0.14132,0.14199 0.143846,0.42308 0.0069,0.76338 -0.170358,0.42318 -0.837686,1.54558 -1.494059,2.51289 -0.08126,0.11975 -0.180492,0.10056 -0.501878,-0.0971 z"
         id="path6348" />
      <path
         style="fill:#000000;stroke:none;stroke-width:0.0360124;stroke-opacity:1;paint-order:markers stroke fill"
         d="m 34.418853,107.40478 c -0.08105,-0.0765 -0.06376,-0.2597 0.04421,-0.46834 0.134083,-0.25912 0.828862,-1.13204 1.024711,-1.28746 0.191704,-0.15213 0.278033,-0.15991 0.35078,-0.0316 0.120069,0.21175 -0.336352,1.00869 -0.861684,1.50454 -0.307767,0.2905 -0.465313,0.37036 -0.558016,0.28286 z"
         id="path6387" />
      <path
         style="fill:#000000;stroke:none;stroke-width:0.0360124;stroke-opacity:1;paint-order:markers stroke fill"
         d="m 31.980249,105.31255 c -0.157014,-0.38621 0.953898,-1.68855 1.44035,-1.68855 0.29278,0 0.172367,0.3233 -0.333446,0.89529 -0.564168,0.63798 -1.033339,0.9742 -1.106904,0.79326 z"
         id="path6426" />
      <path
         style="fill:#000000;stroke:none;stroke-width:0.0360124;stroke-opacity:1;paint-order:markers stroke fill"
         d="m 29.589739,103.08999 c -0.0433,-0.0409 -0.07872,-0.0905 -0.07872,-0.11034 0,-0.14529 0.859284,-0.96819 1.26391,-1.2104 0.253252,-0.15159 0.487486,-0.17736 0.535635,-0.059 0.08424,0.20719 -0.598399,0.93946 -1.165045,1.24975 -0.358805,0.19648 -0.460158,0.22017 -0.555778,0.12992 z"
         id="path6465" />
      <path
         style="fill:#000000;stroke:none;stroke-width:0.0360124;stroke-opacity:1;paint-order:markers stroke fill"
         d="m 27.553989,100.66959 c -0.05943,-0.10482 0.03374,-0.29012 0.255972,-0.50905 0.210668,-0.207542 0.804734,-0.579392 1.089825,-0.682162 0.219253,-0.079 0.2348,-0.0792 0.293592,-0.004 0.03415,0.044 0.05006,0.1235 0.03539,0.17649 -0.03669,0.13242 -0.486881,0.548952 -0.830964,0.768822 -0.542452,0.34664 -0.753264,0.40891 -0.843808,0.24922 z"
         id="path6504" />
      <path
         style="fill:#000000;stroke:none;stroke-width:0.0360124;stroke-opacity:1;paint-order:markers stroke fill"
         d="m 25.851931,98.342128 c -0.133156,-0.0636 -0.312912,-0.36446 -0.312912,-0.52364 0,-0.29153 0.742601,-0.8378 1.916315,-1.40965 0.737478,-0.35931 1.144838,-0.49653 1.338125,-0.45073 0.283016,0.0671 0.511763,0.61197 0.352934,0.84076 -0.09972,0.14365 -0.610996,0.46411 -1.477826,0.92627 -1.03512,0.55187 -1.571648,0.73409 -1.816636,0.61699 z"
         id="path6543" />
      <path
         style="fill:#000000;stroke:none;stroke-width:0.0360124;stroke-opacity:1;paint-order:markers stroke fill"
         d="m 24.266844,95.341538 c -0.203138,-0.12131 0.272696,-0.51476 0.904398,-0.7478 0.66713,-0.24612 1.210063,-0.22381 1.0585,0.0435 -0.09897,0.17455 -1.494082,0.75006 -1.811481,0.74728 -0.04436,-4.8e-4 -0.112494,-0.0197 -0.151417,-0.0429 z"
         id="path6582" />
      <path
         style="fill:#000000;stroke:none;stroke-width:0.0360124;stroke-opacity:1;paint-order:markers stroke fill"
         d="m 23.074907,92.326678 c -0.10964,-0.06023 -0.109166,-0.147135 0.0012,-0.241515 0.18408,-0.157236 1.618301,-0.541619 2.020928,-0.541619 0.186293,0 0.241124,0.108353 0.119186,0.235529 -0.125005,0.130372 -0.82096,0.444015 -1.170997,0.52771 -0.332656,0.07958 -0.842908,0.09001 -0.97044,0.01989 z"
         id="path6621" />
      <path
         style="fill:#000000;stroke:none;stroke-width:0.0360124;stroke-opacity:1;paint-order:markers stroke fill"
         d="m 22.312383,89.544019 c -0.08602,-0.0812 -0.07188,-0.242983 0.02876,-0.328938 0.146943,-0.12552 0.510542,-0.256351 1.059395,-0.381196 0.625544,-0.142291 0.929712,-0.139365 0.952135,0.0092 0.03092,0.204812 -0.456773,0.431276 -1.386783,0.643948 -0.568453,0.129994 -0.575536,0.130606 -0.653506,0.05699 z"
         id="path6660" />
      <path
         style="fill:#000000;stroke:none;stroke-width:0.0360124;stroke-opacity:1;paint-order:markers stroke fill"
         d="m 21.917995,86.406108 c -0.312185,-0.06968 -0.305442,-0.158891 0.02392,-0.316469 0.367798,-0.175978 1.499815,-0.242416 1.878348,-0.110243 l 0.10455,0.03655 -0.11234,0.09662 c -0.284079,0.244324 -1.364746,0.411805 -1.894475,0.293585 z"
         id="path6699" />
      <path
         style="fill:#000000;stroke:none;stroke-width:0.0360124;stroke-opacity:1;paint-order:markers stroke fill"
         d="m 22.231983,83.584487 c -0.505185,-0.03412 -0.543357,-0.04384 -0.655012,-0.166346 -0.09631,-0.105679 -0.113668,-0.164554 -0.09248,-0.313669 0.04528,-0.318594 0.123838,-0.35446 0.896006,-0.40896 0.375182,-0.02647 1.095397,-0.04006 1.600482,-0.03016 1.010759,0.0198 1.085164,0.03997 1.274509,0.345115 0.08059,0.129859 0.08001,0.142354 -0.01332,0.28723 -0.167905,0.2606 -0.339661,0.296943 -1.468474,0.310716 -0.552892,0.0063 -1.246659,-0.0036 -1.541703,-0.02395 z"
         id="path6738" />
      <path
         style="fill:#000000;stroke:none;stroke-width:0.0360124;stroke-opacity:1;paint-order:markers stroke fill"
         d="m 28.003128,86.467793 c -0.128493,-0.04897 -0.04305,-0.205813 0.551453,-1.012479 0.67587,-0.917071 1.138687,-1.735341 1.307978,-2.312546 0.214653,-0.731866 0.12123,-1.551928 -0.234616,-2.059472 -0.287738,-0.410409 -0.786553,-0.561613 -1.194618,-0.36212 -0.416874,0.203795 -0.544099,0.677437 -0.346717,1.290804 0.09458,0.293919 0.147039,0.372896 0.410899,0.618607 0.175057,0.163024 0.457399,0.359627 0.670251,0.46671 0.205818,0.103545 0.367777,0.215454 0.367777,0.25411 0,0.146999 -0.362474,0.25392 -0.858146,0.253137 -0.89675,-0.0018 -1.419332,-0.255676 -1.723273,-0.838417 -0.383295,-0.734891 -0.181126,-1.696893 0.48078,-2.287772 0.321347,-0.286861 0.662871,-0.438983 1.144418,-0.509741 0.466562,-0.0686 1.320646,-0.02953 1.633936,0.07472 0.34602,0.115123 0.77016,0.504592 0.941133,0.864192 0.445819,0.937668 0.01413,2.548246 -1.107275,4.131178 -0.734879,1.037316 -1.55925,1.613683 -2.04398,1.429063 z"
         id="path6777" />
      <path
         style="fill:#000000;stroke:none;stroke-width:0.0360124;stroke-opacity:1;paint-order:markers stroke fill"
         d="m 22.700046,80.386576 c -0.732202,-0.138241 -1.135414,-0.375588 -0.912358,-0.537046 0.125775,-0.09104 0.786749,-0.05329 1.319784,0.07544 0.600252,0.144902 0.776702,0.269 0.664313,0.467223 -0.06615,0.116671 -0.43445,0.114762 -1.071739,-0.0054 z"
         id="path6816" />
      <path
         style="fill:#000000;stroke:none;stroke-width:0.0360124;stroke-opacity:1;paint-order:markers stroke fill"
         d="m 23.386519,77.448482 c -0.795043,-0.165185 -1.269817,-0.398598 -1.131268,-0.556176 0.08226,-0.09355 0.736088,-0.08912 1.188627,0.0081 0.618198,0.132713 0.948739,0.31845 0.909785,0.511218 -0.01421,0.07031 -0.07052,0.08588 -0.335298,0.09328 -0.175029,0.0045 -0.459361,-0.02052 -0.631846,-0.05635 z"
         id="path6855" />
      <path
         style="fill:#000000;stroke:none;stroke-width:0.0360124;stroke-opacity:1;paint-order:markers stroke fill"
         d="m 24.59992,74.669603 c -0.697853,-0.119209 -1.48307,-0.442853 -1.607703,-0.662664 -0.123421,-0.217677 0.323819,-0.26385 0.907665,-0.09371 0.435503,0.126916 1.139898,0.461426 1.288227,0.611774 0.114008,0.115555 0.114134,0.116914 0.01549,0.166742 -0.118465,0.05987 -0.125092,0.0596 -0.603674,-0.02215 z"
         id="path6894" />
      <path
         style="fill:#000000;stroke:none;stroke-width:0.0360124;stroke-opacity:1;paint-order:markers stroke fill"
         d="m 25.391908,71.79812 c -0.483266,-0.155192 -0.907804,-0.371636 -1.056816,-0.538783 -0.138615,-0.155489 -0.149862,-0.231775 -0.04615,-0.313021 0.105535,-0.08264 0.563999,0.0098 1.1683,0.235745 0.606334,0.226661 0.768295,0.331854 0.768295,0.499001 0,0.270908 -0.24669,0.305549 -0.833627,0.117058 z"
         id="path6933" />
      <path
         style="fill:#000000;stroke:none;stroke-width:0.0360124;stroke-opacity:1;paint-order:markers stroke fill"
         d="m 27.941833,70.109969 c -0.819524,-0.371807 -1.751974,-0.917045 -2.093127,-1.223926 -0.256785,-0.230983 -0.309687,-0.304398 -0.309687,-0.429765 0,-0.153724 0.104778,-0.355665 0.238866,-0.460363 0.15081,-0.117751 0.499473,-0.06662 1.000511,0.146613 1.066329,0.45389 2.50046,1.271575 2.525556,1.439965 0.01736,0.116463 -0.330387,0.617004 -0.484759,0.697764 -0.194725,0.101871 -0.339348,0.07382 -0.87736,-0.170288 z"
         id="path6972" />
      <path
         style="fill:#000000;stroke:none;stroke-width:0.0360124;stroke-opacity:1;paint-order:markers stroke fill"
         d="m 28.797096,66.800617 c -0.580581,-0.329721 -1.296597,-0.943313 -1.296597,-1.111118 0,-0.190481 0.609096,0.0063 1.152778,0.372563 0.513592,0.345926 0.753891,0.673837 0.612025,0.835186 -0.08738,0.09939 -0.143429,0.08786 -0.468206,-0.09663 z"
         id="path7011" />
      <path
         style="fill:#000000;stroke:none;stroke-width:0.0360124;stroke-opacity:1;paint-order:markers stroke fill"
         d="m 30.868866,64.601743 c -0.482172,-0.301462 -1.259774,-1.118958 -1.259774,-1.32441 0,-0.208693 0.780713,0.140005 1.269197,0.566879 0.655283,0.572632 0.647872,1.168471 -0.0094,0.757531 z"
         id="path7050" />
      <path
         style="fill:#000000;stroke:none;stroke-width:0.0360124;stroke-opacity:1;paint-order:markers stroke fill"
         d="m 33.095168,62.493767 c -0.725673,-0.461273 -1.446894,-1.460527 -1.231199,-1.705841 0.08547,-0.09721 0.195526,-0.03205 0.655403,0.388047 0.628458,0.574099 1.117093,1.236313 1.044323,1.415307 -0.04546,0.111819 -0.18484,0.08282 -0.468527,-0.09751 z"
         id="path7089" />
      <path
         style="fill:#000000;stroke:none;stroke-width:0.0360124;stroke-opacity:1;paint-order:markers stroke fill"
         d="m 35.360504,60.509339 c -0.436742,-0.425614 -0.945786,-1.247198 -0.945786,-1.526478 0,-0.327155 0.631918,0.171324 1.135485,0.895709 0.285643,0.410913 0.371444,0.643057 0.29046,0.785879 -0.08804,0.155282 -0.198133,0.119723 -0.480159,-0.15511 z"
         id="path7128" />
      <path
         style="fill:#000000;stroke:none;stroke-width:0.0360124;stroke-opacity:1;paint-order:markers stroke fill"
         d="m 38.653297,60.420755 c -0.08263,-0.03394 -0.227296,-0.146729 -0.32148,-0.25059 -0.235244,-0.259403 -0.876573,-1.283593 -1.152185,-1.840021 -0.243774,-0.492141 -0.305935,-0.738437 -0.223198,-0.884357 0.05401,-0.09525 0.583645,-0.384761 0.703899,-0.384761 0.179324,0 0.702399,0.67723 1.239854,1.605231 0.513228,0.886184 0.682216,1.422815 0.509832,1.619013 -0.08404,0.09566 -0.346883,0.201446 -0.494578,0.199051 -0.06155,-9e-4 -0.179515,-0.02962 -0.262144,-0.06356 z"
         id="path7167" />
      <path
         style="fill:#000000;stroke:none;stroke-width:0.0360124;stroke-opacity:1;paint-order:markers stroke fill"
         d="m 41.057146,57.808601 c -0.430591,-0.249753 -0.856761,-1.073334 -0.86577,-1.673126 -0.0083,-0.553601 0.224554,-0.517519 0.544328,0.08435 0.275426,0.518392 0.650103,1.43712 0.632741,1.551513 -0.01981,0.130471 -0.128231,0.143453 -0.311299,0.03727 z"
         id="path7206" />
      <path
         style="fill:#000000;stroke:none;stroke-width:0.0360124;stroke-opacity:1;paint-order:markers stroke fill"
         d="m 43.849573,56.619721 c -0.408285,-0.408617 -0.810028,-1.649351 -0.589887,-1.8218 0.03703,-0.02899 0.101378,-0.04042 0.142977,-0.02539 0.310402,0.112431 0.905132,1.560615 0.774295,1.885429 -0.06672,0.165662 -0.131146,0.158127 -0.327385,-0.03826 z"
         id="path7245" />
      <path
         style="fill:#000000;stroke:none;stroke-width:0.0360124;stroke-opacity:1;paint-order:markers stroke fill"
         d="m 46.861104,55.866556 c -0.211419,-0.237158 -0.53039,-1.313032 -0.53039,-1.788978 0,-0.189194 0.01141,-0.210232 0.114046,-0.210232 0.336497,0 0.623959,0.713447 0.63796,1.583346 0.0085,0.527628 -0.04033,0.619227 -0.221616,0.415864 z"
         id="path7284" />
      <path
         style="fill:#000000;stroke:none;stroke-width:0.0360124;stroke-opacity:1;paint-order:markers stroke fill"
         d="m 49.870055,55.31679 c -0.1276,-0.23804 -0.195517,-0.562369 -0.256435,-1.224547 -0.05521,-0.600215 -0.03783,-0.734035 0.09541,-0.734035 0.167733,0 0.298208,0.201914 0.374876,0.580131 0.109275,0.539088 0.141649,1.268397 0.06243,1.406476 -0.09889,0.172377 -0.172876,0.164869 -0.276279,-0.028 z"
         id="path7323" />
      <path
         style="fill:#000000;stroke:none;stroke-width:0.0360124;stroke-opacity:1;paint-order:markers stroke fill"
         d="m 52.731744,56.858554 c -0.166643,-0.157289 -0.18239,-0.340353 -0.164614,-1.91349 0.0188,-1.663142 -0.01807,-1.563711 0.57973,-1.563711 0.600312,0 0.560915,-0.112485 0.580094,1.656292 0.01052,0.969708 -0.0023,1.549127 -0.03633,1.657048 -0.06461,0.204246 -0.21007,0.273762 -0.572821,0.273762 -0.218416,0 -0.291738,-0.02089 -0.386059,-0.109901 z"
         id="path7362" />
      <path
         style="fill:#000000;stroke:none;stroke-width:0.0360124;stroke-opacity:1;paint-order:markers stroke fill"
         d="m 57.252588,65.02742 c -0.04687,-0.0749 -0.181767,-0.180281 -0.29977,-0.234205 -0.273775,-0.125088 -1.039106,-0.167174 -4.265497,-0.234512 -3.033324,-0.06329 -3.462996,-0.101304 -3.397577,-0.300319 0.02632,-0.08012 0.354606,-0.157082 0.913953,-0.214346 l 0.540349,-0.05527 -2.53e-4,-1.97115 c -2.52e-4,-2.16669 -0.02585,-2.469538 -0.221821,-2.630717 -0.111442,-0.09165 -0.180682,-0.104211 -0.577482,-0.104769 -0.500742,-7.21e-4 -0.671524,-0.02917 -0.671524,-0.111963 0,-0.186448 1.969362,-0.813112 2.555293,-0.813112 h 0.239817 v 2.823395 2.823404 h 0.556132 c 0.917974,0 1.129664,-0.101439 2.069004,-0.991449 1.184927,-1.122694 1.543011,-1.68383 1.543011,-2.417964 0,-0.545742 -0.169285,-0.972103 -0.488307,-1.22985 -0.233903,-0.188977 -0.480107,-0.266974 -0.84273,-0.266974 -0.35624,0 -0.453033,0.07481 -0.584077,0.451262 -0.14318,0.411336 -0.229696,0.567014 -0.315109,0.567014 -0.1118,0 -0.148072,-0.284574 -0.148072,-1.161693 0,-0.61487 0.01706,-0.844647 0.06959,-0.937281 0.08807,-0.155327 0.119929,-0.153788 0.34811,0.01683 0.268092,0.200411 0.454106,0.261231 0.979861,0.320358 0.622428,0.07004 1.032759,0.168543 1.447582,0.347636 0.705784,0.304712 0.885334,0.580329 0.876066,1.344756 -0.0088,0.71991 -0.191919,1.24464 -0.678497,1.943539 -0.317349,0.455817 -0.72342,0.889731 -1.191557,1.273259 -0.195534,0.160197 -0.355519,0.317802 -0.355519,0.350246 0,0.100287 0.266566,0.120704 0.605914,0.04645 0.40185,-0.08795 0.871814,-0.300976 1.188357,-0.53862 0.629961,-0.47294 0.623511,-0.469267 0.674301,-0.3836 0.0614,0.103563 0.003,1.271476 -0.08708,1.741544 -0.07229,0.377163 -0.204208,0.649287 -0.325451,0.671325 -0.03947,0.0072 -0.110107,-0.04825 -0.156979,-0.123126 z"
         id="path7401" />
      <path
         style="fill:#000000;stroke:none;stroke-width:0.0360124;stroke-opacity:1;paint-order:markers stroke fill"
         d="m 56.160135,55.326819 c -0.05121,-0.115689 -0.07045,-0.345133 -0.06892,-0.821565 0.0023,-0.716355 0.04711,-1.042862 0.151742,-1.10613 0.303567,-0.18355 0.460795,1.311555 0.197099,1.87423 -0.05515,0.117688 -0.12471,0.213977 -0.154573,0.213977 -0.02986,0 -0.08627,-0.0722 -0.12535,-0.160512 z"
         id="path7440" />
      <path
         style="fill:#000000;stroke:none;stroke-width:0.0360124;stroke-opacity:1;paint-order:markers stroke fill"
         d="m 59.173618,55.921587 c -0.09474,-0.107749 -0.07274,-0.674115 0.04896,-1.260259 0.109829,-0.528997 0.224895,-0.763329 0.385666,-0.785421 0.148263,-0.02034 0.179281,0.13301 0.142302,0.703643 -0.03303,0.509714 -0.108759,0.827336 -0.26684,1.119157 -0.140937,0.260177 -0.224485,0.320223 -0.310082,0.22288 z"
         id="path7479" />
      <path
         style="fill:#000000;stroke:none;stroke-width:0.0360124;stroke-opacity:1;paint-order:markers stroke fill"
         d="m 62.199438,56.617534 c -0.05235,-0.12877 -0.03078,-0.63654 0.03719,-0.875634 0.159052,-0.559479 0.449314,-0.978413 0.65149,-0.940315 0.07834,0.01476 0.09004,0.06095 0.08612,0.339839 -0.0092,0.647261 -0.630492,1.831082 -0.774805,1.47611 z"
         id="path7518" />
      <path
         style="fill:#000000;stroke:none;stroke-width:0.0360124;stroke-opacity:1;paint-order:markers stroke fill"
         d="m 64.932268,57.821753 c -0.15958,-0.392521 0.723268,-2.106518 1.054544,-2.047336 0.314047,0.05608 -0.160218,1.389497 -0.672728,1.891379 -0.24489,0.239814 -0.33308,0.275842 -0.381816,0.155957 z"
         id="path7557" />
      <path
         style="fill:#000000;stroke:none;stroke-width:0.0360124;stroke-opacity:1;paint-order:markers stroke fill"
         d="m 66.885773,60.379011 c -0.223318,-0.224375 -0.07202,-0.779704 0.504275,-1.850878 0.556629,-1.034606 0.90372,-1.467107 1.177411,-1.467107 0.30154,0 0.712581,0.374436 0.712581,0.649125 0,0.274104 -0.94733,1.835322 -1.405439,2.316201 -0.235343,0.247034 -0.583877,0.459787 -0.753243,0.459787 -0.0714,0 -0.176553,-0.0478 -0.235585,-0.107128 z"
         id="path7596" />
      <path
         style="fill:#000000;stroke:none;stroke-width:0.0360124;stroke-opacity:1;paint-order:markers stroke fill"
         d="m 70.188122,60.718941 c -0.05169,-0.07895 0.181873,-0.516682 0.474199,-0.888813 0.493894,-0.628744 0.894587,-0.942989 1.048571,-0.822358 0.10273,0.08048 0.08698,0.18201 -0.07554,0.487416 -0.200242,0.376299 -0.574983,0.798798 -0.935217,1.054393 -0.293977,0.208594 -0.452101,0.260889 -0.512035,0.169362 z"
         id="path7635" />
      <path
         style="fill:#000000;stroke:none;stroke-width:0.0360124;stroke-opacity:1;paint-order:markers stroke fill"
         d="m 72.757203,62.534736 c -0.02814,-0.06977 -0.03786,-0.193352 -0.02165,-0.274698 0.08193,-0.412047 1.274125,-1.510642 1.4978,-1.380162 0.202731,0.118264 -0.336342,0.992313 -0.949714,1.539846 -0.306919,0.273996 -0.449801,0.305207 -0.526407,0.115014 z"
         id="path7674" />
      <path
         style="fill:#000000;stroke:none;stroke-width:0.0360124;stroke-opacity:1;paint-order:markers stroke fill"
         d="m 74.846782,64.607109 c -0.110741,-0.169128 0.778219,-1.114314 1.263167,-1.343037 0.337735,-0.159306 0.411661,-0.168182 0.563642,-0.0677 0.09994,0.06608 0.103254,0.08219 0.04053,0.196711 -0.146049,0.266497 -0.986615,0.922806 -1.486346,1.160523 -0.225211,0.107137 -0.335685,0.122648 -0.38095,0.05347 z"
         id="path7752" />
      <path
         style="fill:#000000;stroke:none;stroke-width:0.0360124;stroke-opacity:1;paint-order:markers stroke fill"
         d="m 76.841548,66.910527 c -0.159421,-0.150475 0.02651,-0.435229 0.498691,-0.763563 0.528096,-0.367252 1.060503,-0.568095 1.334107,-0.503278 l 0.128329,0.03043 -0.234902,0.240994 c -0.387502,0.397553 -0.808901,0.718992 -1.166436,0.889758 -0.36238,0.17307 -0.467389,0.192903 -0.559789,0.105688 z"
         id="path7791" />
      <path
         style="fill:#000000;stroke:none;stroke-width:0.0360124;stroke-opacity:1;paint-order:markers stroke fill"
         d="m 77.365333,70.276935 c -0.158877,-0.08345 -0.288407,-0.331485 -0.288407,-0.552178 0,-0.226968 0.228224,-0.457149 0.79963,-0.806477 0.61278,-0.374634 1.490009,-0.856161 2.002005,-1.098955 l 0.423345,-0.200753 0.177361,0.366234 c 0.243065,0.5019 0.235845,0.611918 -0.05742,0.875895 -0.262216,0.235988 -1.527348,0.964658 -2.167987,1.248682 -0.496164,0.219964 -0.711456,0.260565 -0.888483,0.167552 z"
         id="path7830" />
      <path
         style="fill:#000000;stroke:none;stroke-width:0.0360124;stroke-opacity:1;paint-order:markers stroke fill"
         d="m 80.179977,71.914331 c -0.163016,-0.05689 -0.179278,-0.133028 -0.0556,-0.260276 0.240815,-0.247835 1.218941,-0.778273 1.634684,-0.886499 0.152659,-0.0397 0.209236,-0.03763 0.259461,0.0098 0.311402,0.293918 -1.335719,1.312518 -1.838512,1.136963 z"
         id="path7869" />
      <path
         style="fill:#000000;stroke:none;stroke-width:0.0360124;stroke-opacity:1;paint-order:markers stroke fill"
         d="m 81.096081,74.670432 c -0.08946,-0.10179 0.06123,-0.281135 0.398175,-0.473786 0.368875,-0.210908 0.831009,-0.34119 1.307745,-0.368656 l 0.404556,-0.02332 v 0.120857 c 0,0.08849 -0.04921,0.151437 -0.183894,0.235069 -0.330354,0.205191 -1.4675,0.581382 -1.757366,0.581382 -0.05847,0 -0.134604,-0.03223 -0.169216,-0.07157 z"
         id="path7908" />
      <path
         style="fill:#000000;stroke:none;stroke-width:0.0360124;stroke-opacity:1;paint-order:markers stroke fill"
         d="m 81.894815,77.560246 c -0.105638,-0.102798 -0.07535,-0.354324 0.05217,-0.433194 0.292327,-0.180786 1.538049,-0.359068 1.869308,-0.267523 0.35104,0.09702 0.130923,0.251922 -0.739296,0.520273 -0.679295,0.209486 -1.088228,0.271899 -1.182211,0.180444 z"
         id="path7947" />
      <path
         style="fill:#000000;stroke:none;stroke-width:0.0360124;stroke-opacity:1;paint-order:markers stroke fill"
         d="m 52.102347,85.685811 c -0.498802,-0.07922 -0.766246,-0.206199 -1.039976,-0.493564 -0.631348,-0.662808 -0.894775,-1.548011 -0.761411,-2.558617 0.08477,-0.6424 0.25306,-0.942071 0.96603,-1.720209 0.355584,-0.388083 0.424264,-0.502656 0.523838,-0.873815 0.170893,-0.637025 0.236455,-1.355927 0.546453,-5.991886 0.31269,-4.676261 0.420978,-6.036843 0.494959,-6.218817 0.05016,-0.123359 0.225544,-0.136935 1.03235,-0.07994 0.949587,0.06716 1.120011,0.123486 1.258875,0.416279 0.174287,0.367486 0.138653,1.890308 -0.161475,6.900701 -0.20495,3.421494 -0.24679,5.072933 -0.141101,5.569657 l 0.0558,0.262293 h 0.339764 c 0.880575,0 3.059217,-0.419798 11.415581,-2.199612 7.322808,-1.559678 7.96173,-1.689861 8.001073,-1.630293 0.05723,0.08669 0.423678,1.541917 0.49067,1.948599 0.03863,0.234854 0.04206,0.371114 0.0099,0.401407 -0.0997,0.09411 -0.958737,0.287382 -8.550751,1.923824 -7.260162,1.564909 -8.380457,1.818307 -9.403081,2.126873 -0.771259,0.23272 -1.069312,0.405043 -1.325431,0.76629 -0.434047,0.612206 -0.974456,1.094652 -1.447355,1.292092 -0.506022,0.211277 -1.530165,0.281792 -2.304789,0.158694 z m 1.744805,-0.827696 c 0.360851,-0.161133 0.715814,-0.467556 0.984899,-0.85022 0.433509,-0.616491 0.470342,-1.00768 0.149191,-1.584543 -0.235616,-0.42321 -0.607685,-0.743802 -1.147862,-0.989045 -0.370358,-0.168146 -0.455797,-0.189031 -0.766565,-0.187393 -0.303883,0.0018 -0.399135,0.02485 -0.726304,0.1775 -0.453152,0.211393 -0.887717,0.594588 -1.083178,0.955151 -0.197771,0.364812 -0.227205,0.903307 -0.07149,1.308008 0.24663,0.641014 0.796535,1.124639 1.458196,1.282451 0.326823,0.07796 0.896632,0.02494 1.203121,-0.111909 z"
         id="path7986" />
      <path
         style="fill:#000000;stroke:none;stroke-width:0.0949647;stroke-opacity:1;paint-order:markers stroke fill"
         d="m 49.301975,117.45414 c -2.420952,-0.22198 -5.211518,-0.80499 -7.754431,-1.62008 C 27.204656,111.23668 17.28871,98.921718 16.71535,84.994069 16.324523,75.500414 19.247637,67.408943 25.544419,60.554305 30.943258,54.677172 38.503856,50.605311 46.570278,49.23055 c 3.111508,-0.530294 8.889883,-0.616095 12.11087,-0.179822 3.529685,0.478079 7.198535,1.616411 11.002599,3.41377 3.607446,1.704454 6.272875,3.534429 9.23582,6.340917 4.291625,4.065038 6.934889,8.126843 8.861423,13.617028 1.395748,3.977578 1.772359,6.768465 1.630554,12.0834 -0.08574,3.213522 -0.268721,4.754097 -0.799402,6.730153 -1.28578,4.787712 -3.459146,9.042514 -6.691613,13.100184 -1.155135,1.45002 -5.209885,5.21476 -6.856204,6.36582 -4.246207,2.96884 -9.030337,5.06325 -13.872159,6.07298 -1.781189,0.37147 -3.640876,0.57578 -6.260935,0.68786 -3.011426,0.12881 -4.148619,0.12706 -5.629256,-0.009 z m 8.603408,-0.90861 c 5.136671,-0.66473 10.200876,-2.43214 14.418175,-5.03194 8.4034,-5.18035 14.330624,-13.595972 16.059806,-22.802101 0.190018,-1.011668 0.22833,-1.951552 0.228654,-5.609268 5.06e-4,-4.933172 -0.10208,-5.816439 -1.025824,-8.839255 C 85.187007,66.411958 79.82062,59.483663 72.670316,55.005758 68.435926,52.353967 63.250128,50.45056 58.422629,49.776274 55.314932,49.342206 49.00589,49.441007 46.396705,49.964603 c -5.706567,1.145173 -11.72122,3.864006 -15.968528,7.218333 -2.766198,2.184614 -5.16908,4.677613 -6.983068,7.244936 -3.016681,4.26949 -4.840828,8.708783 -5.6924,13.853194 -0.331152,2.000515 -0.400343,6.374883 -0.13514,8.543815 0.941878,7.703007 4.529215,14.705539 10.319361,20.143549 5.906817,5.54758 13.594332,8.97197 22.015827,9.80692 1.118351,0.11088 6.527952,-0.0455 7.952626,-0.22982 z"
         id="path8025" />
      <path
         style="fill:#ff7f2a;stroke:none;stroke-width:0.0477605;stroke-opacity:1;paint-order:markers stroke fill"
         d="m 15.074635,53.493352 c -0.402081,-1.357054 -0.916136,-3.631934 -1.029932,-4.557828 -0.109371,-0.889875 -0.108094,-3.799674 0.002,-4.59759 0.04611,-0.334168 0.182672,-0.987488 0.303463,-1.451812 0.674791,-2.593934 2.07156,-4.906705 4.040786,-6.690759 0.681099,-0.617049 1.915514,-1.531816 2.067075,-1.531816 0.0493,0 0.290692,0.174142 0.536422,0.386994 0.260136,0.225329 1.736145,1.198161 3.533234,2.328733 3.114666,1.959482 3.808779,2.429964 3.933603,2.666294 0.11395,0.215733 0.238078,0.32991 0.44914,0.413155 0.165127,0.06509 0.226811,0.149502 0.345165,0.472183 0.18452,0.50308 0.275953,1.061307 0.276571,1.688548 l 5.05e-4,0.497641 -0.755953,0.411796 c -2.802441,1.526549 -6.449298,3.897278 -8.64154,5.617613 -0.855196,0.671099 -2.808708,2.489425 -3.609125,3.359369 -0.315705,0.343125 -0.723837,0.833439 -0.906953,1.089574 -0.183119,0.256145 -0.342689,0.465711 -0.3546,0.465711 -0.01191,0 -0.09737,-0.255514 -0.189895,-0.567806 z"
         id="path8356" />
      <path
         style="fill:#ff7f2a;stroke:none;stroke-width:0.0477605;stroke-opacity:1;paint-order:markers stroke fill"
         d="m 17.007196,56.089536 c -0.768934,-0.112197 -1.097423,-0.329154 -1.085772,-0.717111 0.02766,-0.920987 2.154967,-3.272496 4.96168,-5.484603 2.073479,-1.634209 5.295308,-3.751917 8.005279,-5.261876 l 0.558848,-0.311382 -0.0049,1.543168 -0.005,1.543168 0.242728,0.601547 c 0.133503,0.330855 0.242732,0.624413 0.242732,0.652365 0,0.028 -0.420996,0.315551 -0.935546,0.639115 -1.537683,0.966944 -3.341437,2.332936 -5.932791,4.492938 -1.610397,1.342334 -2.175922,1.707956 -3.040575,1.965775 -0.925154,0.275851 -2.339265,0.434301 -3.006769,0.336896 z"
         id="path8432" />
      <path
         style="fill:#ff7f2a;stroke:none;stroke-width:0.0477605;stroke-opacity:1;paint-order:markers stroke fill"
         d="m 73.983641,41.542383 c -4.071021,-1.947266 -6.774067,-2.8561 -9.588543,-3.223937 -0.409127,-0.05347 -0.758071,-0.110621 -0.775431,-0.127006 -0.04299,-0.0406 1.461663,-1.423742 2.104611,-1.934663 1.735709,-1.379279 3.959955,-2.596373 6.145749,-3.362897 0.838792,-0.294153 2.82422,-0.802769 2.890287,-0.740418 0.07916,0.07472 0.229684,1.592546 0.245908,2.479387 0.0099,0.540187 -0.0076,2.114711 -0.03853,3.498942 -0.04988,2.222829 -0.04425,2.565324 0.04816,2.932431 0.170846,0.678662 0.381551,0.976298 0.952852,1.345935 0.373529,0.241696 -0.08097,0.04303 -1.985086,-0.867774 z"
         id="path8471" />
      <path
         style="fill:#ff7f2a;stroke:none;stroke-width:0.0477605;stroke-opacity:1;paint-order:markers stroke fill"
         d="m 85.001854,55.170079 c -0.158153,-0.0991 -0.741166,-0.542492 -1.295585,-0.985337 -3.807335,-3.041126 -4.857614,-3.821964 -6.666015,-4.955921 -1.540758,-0.966134 -2.992035,-1.760152 -4.747502,-2.597453 -1.815278,-0.865821 -2.620479,-1.197099 -4.632658,-1.905972 -1.752724,-0.617464 -2.024818,-0.732379 -2.512714,-1.061137 -0.477499,-0.321744 -1.618747,-1.426443 -2.137768,-2.069293 -0.508214,-0.629464 -0.894739,-1.34589 -0.894739,-1.658416 0,-1.171209 3.070978,-0.905261 7.110068,0.615726 3.603842,1.357089 8.340519,3.742014 11.816223,5.949485 l 1.125758,0.714986 0.454361,0.798006 c 0.981904,1.724557 1.841583,3.617134 2.244603,4.941481 0.327988,1.077782 0.592646,2.394009 0.481381,2.394009 -0.03186,0 -0.187261,-0.08111 -0.345413,-0.180164 z"
         id="path8510" />
      <path
         style="fill:#ffcc00;stroke:none;stroke-width:0.102383;stroke-opacity:1;paint-order:markers stroke fill"
         d="m 49.026355,116.55071 c -2.899317,-0.31847 -6.65166,-1.2725 -9.428124,-2.39713 -1.989624,-0.8059 -1.953198,-0.76991 -4.853312,-4.7948 -2.378518,-3.30099 -3.156988,-4.16825 -4.299261,-4.78959 -1.135766,-0.61779 -3.700764,-1.65432 -5.441633,-2.19897 l -1.330669,-0.41631 -0.807749,-1.21535 c -1.886413,-2.838302 -3.796838,-7.265762 -4.52966,-10.497596 -1.462579,-6.450125 -0.890288,-13.272786 1.611083,-19.20683 2.253916,-5.347002 5.451419,-9.567313 10.128498,-13.368365 1.44309,-1.172801 4.246695,-3.080295 4.527364,-3.080295 0.285239,0 0.433161,1.150052 0.349623,2.718274 -0.07792,1.462858 -0.105259,1.584399 -0.343135,1.525686 -0.347391,-0.08579 -0.335901,0.228876 0.0333,0.911966 0.284985,0.527269 0.287799,0.598334 0.121022,3.054216 -0.132932,1.957538 -0.133919,2.774557 -0.0045,3.689198 0.230781,1.630374 0.419787,2.002226 1.178758,2.319118 0.341346,0.142516 0.871598,0.457041 1.178343,0.698935 0.306743,0.241893 1.174507,0.79815 1.928362,1.236124 0.753856,0.437965 1.524558,0.951847 1.712676,1.14195 0.333951,0.337472 0.340539,0.385176 0.278825,2.019329 -0.03477,0.920528 -0.06321,2.857991 -0.06321,4.305473 v 2.631788 l 0.402138,0.723746 c 0.548587,0.987307 1.178412,1.855145 1.575734,2.171218 0.181961,0.144749 0.378149,0.432492 0.435977,0.639429 0.09207,0.32946 0.234599,0.41482 1.145956,0.686341 0.572444,0.17055 1.738518,0.686061 2.591272,1.145578 0.852756,0.459517 2.358411,1.120354 3.345902,1.46853 0.987492,0.348175 2.64237,1.031644 3.677508,1.518807 1.03514,0.487163 2.32122,1.020887 2.857958,1.186044 1.436759,0.442098 2.111708,0.801472 3.276195,1.744425 0.575077,0.465669 1.310559,1.003729 1.634401,1.195699 l 0.588807,0.34904 -0.08368,1.21775 c -0.11107,1.61624 0.08816,2.1005 1.027405,2.49728 0.916651,0.38724 4.296729,0.52428 10.218565,0.41431 l 4.532792,-0.0842 0.865469,0.41237 c 1.055047,0.50269 1.194648,0.50793 1.542026,0.0578 0.261005,-0.33819 0.299299,-0.3473 0.829426,-0.19738 0.305689,0.0864 0.746821,0.15717 0.980301,0.15717 0.547295,0 1.982863,0.51703 1.982863,0.71415 0,0.0832 -0.378594,0.73738 -0.841329,1.453732 -5.996057,9.28254 -15.864951,15.22954 -26.960834,16.24662 -1.752113,0.1606 -6.088646,0.15755 -7.571504,-0.005 z m 1.050255,-3.86327 c 0.280157,-0.58036 0.347832,-1.5588 0.127092,-1.83746 -0.195184,-0.24641 -0.206067,-0.24467 -0.412062,0.0658 -0.221645,0.33405 -0.440406,1.86682 -0.287092,2.01152 0.18322,0.17294 0.420907,0.0733 0.572062,-0.23985 z m 3.656102,-0.0139 c 0.07478,-0.18565 0.135963,-0.95122 0.135963,-1.70127 0,-1.47125 -0.128948,-1.77728 -0.748847,-1.77728 -0.566269,0 -0.64528,0.22747 -0.64528,1.8578 0,0.84809 0.03808,1.63566 0.08462,1.75014 0.05433,0.13362 0.255221,0.20814 0.561102,0.20814 0.383189,0 0.503097,-0.0661 0.61244,-0.33753 z m 2.779896,0.083 c 0.156926,-0.27677 0.196027,-1.43901 0.0597,-1.77435 -0.123909,-0.30478 -0.427521,-0.25388 -0.524569,0.0879 -0.04624,0.16284 -0.08492,0.5725 -0.08597,0.91036 -0.003,0.97407 0.242466,1.31993 0.550841,0.77606 z m -9.517873,-0.79819 c 0.253589,-0.70189 0.233481,-1.71066 -0.0341,-1.71066 -0.273841,0 -0.576175,0.67589 -0.701631,1.56856 -0.09485,0.67489 -0.08915,0.69053 0.236065,0.64714 0.237281,-0.0317 0.38119,-0.17713 0.499662,-0.50504 z m 12.803758,0.24895 c 0.126949,-0.37754 -0.04909,-1.61335 -0.270543,-1.89921 -0.330245,-0.42629 -0.543526,-0.0967 -0.462231,0.71429 0.123229,1.22933 0.508404,1.85218 0.732774,1.18492 z m -15.973815,-1.06036 c 0.291917,-0.45308 0.498752,-1.33738 0.361748,-1.54662 -0.154516,-0.23598 -0.477101,0.004 -0.767289,0.56908 -0.557188,1.08641 -0.207571,1.92915 0.405541,0.97754 z m 19.242165,-0.0111 c -0.0031,-0.4448 -0.42334,-1.45407 -0.663689,-1.59428 -0.288586,-0.16835 -0.460789,0.26577 -0.327511,0.82566 0.257809,1.08305 0.997556,1.65668 0.9912,0.76862 z m -22.126436,-1.31511 c 0.4952,-0.95755 0.62975,-1.54689 0.353156,-1.54689 -0.618537,0 -1.552399,1.88576 -1.130887,2.28362 0.195845,0.18486 0.402231,-0.0107 0.777731,-0.73673 z m 25.196575,0.4027 c 0,-0.81316 -0.976349,-2.24313 -1.24814,-1.82805 -0.271523,0.41469 0.640714,2.24707 1.118685,2.24707 0.0712,0 0.129455,-0.18857 0.129455,-0.41902 z m -27.19779,-2.48438 c 0.835084,-1.47933 0.721823,-2.16202 -0.317825,-1.91572 -0.376229,0.0891 -1.602425,1.97376 -1.716722,2.63855 -0.07024,0.40857 -0.03075,0.48186 0.391882,0.72708 l 0.469994,0.27272 0.292397,-0.34061 c 0.160818,-0.18734 0.556943,-0.80925 0.880274,-1.38202 z m 29.992011,1.4529 c 0.584415,-0.29522 0.602165,-0.61036 0.08355,-1.48348 -0.266661,-0.44898 -0.681317,-1.07152 -0.921454,-1.38342 -0.374306,-0.48618 -0.49829,-0.5613 -0.86875,-0.52636 -0.790686,0.0745 -0.801421,0.35613 -0.06587,1.7272 0.661669,1.23332 1.09107,1.80066 1.362872,1.80066 0.07869,0 0.263056,-0.0606 0.409611,-0.1346 z M 53.447645,108.3937 c 1.241836,-0.25138 1.954567,-1.07623 1.954567,-2.26205 0,-0.93596 -0.892887,-1.58908 -2.180922,-1.59527 l -0.717088,-0.004 0.492965,-0.72844 c 0.271133,-0.40064 0.703611,-0.96116 0.961062,-1.24559 0.591285,-0.65325 0.597818,-0.86454 0.02673,-0.86454 -0.36802,0 -0.620502,0.17369 -1.51944,1.0453 -1.60541,1.5566 -2.199967,2.96287 -1.817896,4.29978 0.360586,1.26174 1.215169,1.67507 2.800019,1.35425 z m -18.294669,-1.33706 c 0.541381,-0.52799 0.899024,-1.29029 0.727934,-1.55158 -0.09979,-0.15241 -0.218856,-0.10189 -0.615737,0.26119 -0.519578,0.47533 -1.090976,1.42303 -0.96968,1.60827 0.138474,0.21149 0.422724,0.10611 0.857483,-0.31788 z m 36.699921,0.0527 c 0,-0.44911 -1.158501,-1.73041 -1.564563,-1.73041 -0.192841,0 -0.114919,0.59017 0.122109,0.92475 0.664302,0.93767 1.442454,1.3723 1.442454,0.80566 z m 2.509424,-1.84226 c 0,-0.2561 -0.730207,-1.28832 -1.104796,-1.56173 -0.591721,-0.4319 -0.767965,0.0872 -0.281721,0.82987 0.508029,0.77588 1.386517,1.23959 1.386517,0.73186 z m -41.354903,-0.54046 c 0.667177,-0.67324 0.843784,-1.19348 0.402461,-1.18556 -0.322103,0.005 -0.769579,0.36877 -1.210347,0.98183 -0.750171,1.0434 -0.169371,1.18987 0.807886,0.20373 z m -2.595777,-1.83859 c 0.931736,-0.63708 1.306862,-1.32519 0.722418,-1.32519 -0.413516,0 -1.732738,1.21671 -1.619971,1.49409 0.121494,0.29884 0.248394,0.27496 0.897553,-0.1689 z m 46.460112,0.0512 c 0,-0.18009 -0.951602,-0.96425 -1.489522,-1.22744 -0.73404,-0.35913 -0.811638,0.0109 -0.15117,0.72093 0.671493,0.72187 1.640692,1.02108 1.640692,0.50651 z M 28.897112,100.1742 c 0.421918,-0.335092 0.592387,-0.848412 0.281754,-0.848412 -0.330541,0 -1.122436,0.44604 -1.455793,0.819982 -0.270753,0.30372 -0.315002,0.43476 -0.193476,0.57297 0.186475,0.21208 0.644513,0.0297 1.367515,-0.54454 z m 49.926412,0.32526 c 0,-0.29057 -1.589657,-1.339902 -1.934202,-1.276772 -0.600677,0.11007 -0.0599,0.849652 0.978412,1.338002 0.765916,0.36026 0.95579,0.3481 0.95579,-0.0612 z M 27.492857,97.916458 c 0.560312,-0.2707 1.218145,-0.64929 1.461847,-0.84133 0.397911,-0.31355 0.428818,-0.38769 0.303102,-0.72701 -0.101192,-0.27313 -0.246396,-0.38948 -0.523863,-0.41978 -0.504576,-0.0551 -2.3174,0.80293 -2.904594,1.37476 -0.400195,0.38973 -0.431411,0.473 -0.288382,0.7693 0.228325,0.473 0.733575,0.43263 1.95189,-0.15594 z m -1.741401,-2.89019 c 0.788818,-0.37523 0.787827,-0.63922 -0.0023,-0.62519 -0.689968,0.0122 -1.575307,0.49929 -1.575307,0.86662 0,0.22785 0.06041,0.25057 0.453092,0.17044 0.249199,-0.0509 0.755256,-0.23619 1.124567,-0.41187 z m -0.880151,-2.938106 c 0.563103,-0.27116 0.678878,-0.439639 0.409925,-0.596533 -0.155172,-0.09052 -1.885498,0.268424 -2.211925,0.458851 -0.112214,0.06545 -0.152625,0.205353 -0.09808,0.339525 0.07632,0.187733 0.203598,0.213863 0.717823,0.147333 0.343777,-0.0445 0.875793,-0.201609 1.182255,-0.349176 z m -1.736672,-2.548284 c 0.908402,-0.228345 1.317988,-0.439667 1.317988,-0.680003 0,-0.250365 -0.586677,-0.251121 -1.464025,-0.0018 -0.703943,0.199969 -0.928453,0.390315 -0.808468,0.685449 0.08749,0.215193 0.08425,0.215211 0.954505,-0.0036 z m 0.261221,-3.154043 c 0.68284,-0.194469 0.780453,-0.4224 0.225738,-0.527116 -0.386386,-0.07292 -0.766594,-0.04474 -1.643543,0.122 -0.336287,0.06392 -0.426754,0.384384 -0.139412,0.493825 0.297198,0.113196 0.986061,0.07391 1.557217,-0.08867 z m 5.603728,-0.11713 c 1.222691,-0.890703 2.423668,-3.101874 2.423668,-4.462312 0,-1.259116 -0.755034,-1.954423 -2.12322,-1.95526 -1.611736,-9.01e-4 -2.616807,0.801787 -2.616807,2.090134 0,1.150988 0.670729,1.725457 2.014558,1.725457 0.425532,0 0.773693,0.03259 0.773693,0.07238 0,0.166985 -0.494585,0.96969 -1.07078,1.737862 -0.339641,0.452801 -0.579001,0.882106 -0.531916,0.954026 0.146973,0.224456 0.711078,0.143525 1.130804,-0.162241 z m -3.79015,-2.808757 c 0.259182,-0.244639 0.261405,-0.26223 0.07476,-0.59141 -0.13064,-0.230398 -0.306374,-0.254524 -1.854189,-0.254524 -1.741656,0 -2.044458,0.07796 -2.044458,0.526359 0,0.444861 0.304945,0.526351 1.969701,0.526351 1.300578,0 1.679931,-0.04231 1.854186,-0.206776 z m -1.34079,-3.181644 c -0.09408,-0.463199 -2.204272,-0.803542 -2.204272,-0.355521 0,0.286491 0.783171,0.574558 1.578613,0.580652 0.566856,0.0045 0.665088,-0.03097 0.625659,-0.225131 z m 0.557644,-2.893964 c -0.06655,-0.326201 -0.674313,-0.562612 -1.534037,-0.596704 -0.99501,-0.03943 -1.017925,0.275886 -0.04287,0.589943 0.954998,0.307602 1.638887,0.310537 1.576908,0.0072 z m 0.925616,-2.65515 c 0.129342,-0.19753 -0.60994,-0.658244 -1.407362,-0.877047 -0.767697,-0.210655 -1.025456,-0.173664 -1.025456,0.147162 0,0.418862 2.203588,1.079978 2.432818,0.729885 z m 0.913084,-3.044482 c 0,-0.298852 -0.85904,-0.73056 -1.603246,-0.805703 -0.340209,-0.03439 -0.418238,0.0072 -0.418238,0.220945 0,0.313399 1.034528,0.855333 1.632786,0.855333 0.299298,0 0.388698,-0.06221 0.388698,-0.270575 z m 2.812125,-1.52628 c 0.611544,-0.52238 0.232759,-0.91726 -1.79741,-1.873762 -0.921998,-0.4344 -1.412019,-0.507364 -1.683896,-0.250743 -0.443669,0.418772 0.02183,0.951488 1.575361,1.802833 1.061307,0.581607 1.512501,0.657758 1.905945,0.321672 z m 0.2942,-3.236432 c 0.107733,-0.283602 -0.175245,-0.628807 -0.843225,-1.028656 -0.617332,-0.369529 -1.147802,-0.500604 -1.147802,-0.28362 0,0.239986 0.499527,0.741679 1.090984,1.095724 0.714257,0.427549 0.811043,0.450829 0.900043,0.216552 z m 2.051939,-2.375689 c 0,-0.470518 -1.154007,-1.407503 -1.733492,-1.407503 -0.385912,0 -0.235777,0.286717 0.52727,1.006942 0.807267,0.76197 1.206222,0.894449 1.206222,0.400561 z m 2.230602,-2.061948 c 0,-0.142822 -0.371649,-0.631345 -0.825884,-1.085613 -0.644321,-0.644354 -0.863288,-0.791381 -0.996016,-0.668768 -0.259674,0.239886 0.06876,0.858051 0.788654,1.484391 0.66533,0.57887 1.033246,0.675007 1.033246,0.26999 z"
         id="path8586" />
      <path
         style="fill:#99ff55;stroke:none;stroke-width:0.102383;stroke-opacity:1;paint-order:markers stroke fill"
         d="m 48.989235,122.78699 c -7.908011,-0.82992 -15.67356,-3.83487 -22.100896,-8.55216 -1.514313,-1.11142 -4.641246,-4.03669 -6.280835,-5.87576 -3.43589,-3.85395 -6.706874,-9.742022 -8.127523,-14.630312 -0.497853,-1.713049 -0.79539,-3.054771 -0.697837,-3.146856 0.03865,-0.03646 0.388177,0.04771 0.776746,0.187069 0.388569,0.139357 1.03019,0.29391 1.425824,0.34345 0.798322,0.09995 1.127267,0.391882 1.127267,1.000406 0,0.198331 0.12606,0.662491 0.280137,1.031451 0.50535,1.21013 0.569778,1.74257 0.408635,3.377 l -0.150818,1.52974 0.393231,0.31249 c 0.510956,0.40603 2.722271,1.873782 3.333259,2.212422 0.31566,0.17496 0.474955,0.36205 0.475205,0.55811 2.09e-4,0.16223 0.204268,0.55718 0.453468,0.87768 0.249199,0.3205 0.6232,0.85396 0.831112,1.18544 0.35465,0.56545 0.414979,0.6029 0.975887,0.60585 1.173155,0.006 1.674306,0.19794 2.270818,0.86899 2.373473,2.6701 4.300225,4.42338 6.788083,6.17696 3.325516,2.344 7.402784,4.29004 11.405257,5.44362 2.457536,0.7083 5.99985,1.32416 7.616331,1.32416 0.724707,0 0.863363,0.0443 1.203912,0.3849 0.211682,0.21169 0.569541,0.71624 0.795238,1.12122 0.464503,0.83349 1.334376,1.93498 2.384847,3.01987 l 0.714197,0.73759 -2.906803,-0.0211 c -1.59874,-0.0116 -3.126374,-0.0441 -3.394742,-0.0723 z"
         id="path8974" />
    </g>
  </g>
</svg>
