<?xml version="1.0" encoding="UTF-8" standalone="no"?>
<!-- Created with Inkscape (http://www.inkscape.org/) -->

<svg
   width="297mm"
   height="210mm"
   viewBox="0 0 297 210"
   version="1.1"
   id="svg5"
   inkscape:version="1.1.2 (b8e25be833, 2022-02-05)"
   sodipodi:docname="sheet.svg"
   xmlns:inkscape="http://www.inkscape.org/namespaces/inkscape"
   xmlns:sodipodi="http://sodipodi.sourceforge.net/DTD/sodipodi-0.dtd"
   xmlns="http://www.w3.org/2000/svg"
   xmlns:svg="http://www.w3.org/2000/svg">
  <sodipodi:namedview
     id="namedview7"
     pagecolor="#505050"
     bordercolor="#eeeeee"
     borderopacity="1"
     inkscape:pageshadow="0"
     inkscape:pageopacity="0"
     inkscape:pagecheckerboard="0"
     inkscape:document-units="mm"
     showgrid="false"
     inkscape:zoom="0.52716364"
     inkscape:cx="529.24743"
     inkscape:cy="210.5608"
     inkscape:window-width="1920"
     inkscape:window-height="974"
     inkscape:window-x="-11"
     inkscape:window-y="-11"
     inkscape:window-maximized="1"
     inkscape:current-layer="layer1" />
  <defs
     id="defs2" />
  <g
     inkscape:label="Capa 1"
     inkscape:groupmode="layer"
     id="layer1">
    <rect
       style="fill:#000000;fill-rule:evenodd;stroke-width:0.26867"
       id="rect5270"
       width="302.09802"
       height="212.1057"
       x="-2.8580558"
       y="-1.1199851" />
    <g
       id="g6718"
       transform="translate(4.5170983,5.0189981)">
      <path
         style="fill:#552200;fill-opacity:1;stroke:#000024;stroke-width:14.9914;stroke-miterlimit:4;stroke-dasharray:none;stroke-opacity:0;paint-order:markers stroke fill"
         d="m 210.30529,130.35294 c -4.7235,-0.56166 -11.57932,-1.85653 -16.06593,-3.03442 -6.15915,-1.61698 -12.9954,-4.03471 -12.9954,-4.59598 0,-0.83576 0.9538,-0.89722 3.05194,-0.19664 8.76547,2.9268 20.32173,4.20567 27.46287,3.03915 1.86018,-0.30385 3.45485,-0.48426 3.54372,-0.4009 0.0889,0.0834 -0.10896,1.29953 -0.43971,2.70258 -0.64769,2.7479 -0.95352,2.91474 -4.55749,2.48621 z"
         id="path5049" />
      <g
         id="g6679"
         transform="translate(-0.34139997,0.04228183)">
        <path
           style="fill:#028200;fill-opacity:1;stroke:#000024;stroke-width:14.9914;stroke-miterlimit:4;stroke-dasharray:none;stroke-opacity:0;paint-order:markers stroke fill"
           d="m 93.060721,73.296798 c -3.548794,-2.35233 -10.196795,-6.89034 -14.77333,-10.084465 -9.530483,-6.651659 -8.732548,-5.170485 -7.598258,-14.104342 0.373847,-2.944462 0.585769,-5.496158 0.470938,-5.670444 -0.114832,-0.174284 0.407932,-0.439193 1.161685,-0.588682 5.240423,-1.039333 32.570094,-3.07945 33.210124,-2.479084 0.28865,0.270759 -4.85841,32.854891 -5.670787,35.89963 l -0.348018,1.304349 z"
           id="path4661" />
        <path
           style="fill:#028200;fill-opacity:1;stroke:#000024;stroke-width:14.9914;stroke-miterlimit:4;stroke-dasharray:none;stroke-opacity:0;paint-order:markers stroke fill"
           d="m 127.50763,94.387363 c -4.82802,-2.749185 -12.69922,-7.401757 -17.49158,-10.339046 -7.2486,-4.442748 -8.675,-5.498447 -8.48508,-6.279913 0.12556,-0.516664 1.47377,-8.383556 2.99603,-17.481987 1.52226,-9.098434 2.93295,-17.276537 3.13487,-18.173565 l 0.36714,-1.63096 6.67679,0.114566 c 3.67224,0.063 9.30969,0.432913 12.52767,0.822008 6.27301,0.758483 15.22195,2.425094 16.26333,3.028803 0.50614,0.293438 0.006,5.72248 -2.45356,26.626923 -1.69914,14.442085 -3.18948,26.730147 -3.31187,27.306809 -0.12235,0.576661 -0.4977,1.038665 -0.83403,1.02668 -0.33632,-0.01196 -4.56169,-2.271132 -9.38971,-5.020318 z"
           id="path4700" />
        <path
           style="fill:#028200;fill-opacity:1;stroke:#000024;stroke-width:14.9914;stroke-miterlimit:4;stroke-dasharray:none;stroke-opacity:0;paint-order:markers stroke fill"
           d="m 162.85848,112.42131 c -4.50558,-2.04332 -11.60109,-5.42273 -15.76779,-7.5098 -6.60623,-3.30903 -7.57581,-3.94074 -7.57581,-4.935846 0,-1.379816 5.85479,-50.284225 6.35412,-53.075349 l 0.35233,-1.969374 5.21614,1.987838 c 10.21158,3.891565 19.08423,10.275253 24.0603,17.310892 l 1.95381,2.762485 -3.12587,24.489963 c -1.71923,13.469471 -3.15948,24.526941 -3.20057,24.572131 -0.0411,0.0452 -3.76107,-1.58962 -8.26666,-3.63294 z"
           id="path4739" />
        <path
           style="fill:#028200;fill-opacity:1;stroke:#000024;stroke-width:14.9914;stroke-miterlimit:4;stroke-dasharray:none;stroke-opacity:0;paint-order:markers stroke fill"
           d="m 175.15847,117.72751 c -1.59102,-0.61229 -1.86268,-0.92874 -1.86133,-2.16816 10e-4,-0.79818 1.23039,-11.06086 2.73227,-22.805974 1.50187,-11.745108 2.74751,-21.70562 2.76808,-22.134466 0.0206,-0.42885 0.70005,1.002682 1.50998,3.181181 2.66538,7.169244 3.48327,15.600646 2.42621,25.011043 -0.47911,4.265226 -2.36746,13.995376 -3.44375,17.744726 -0.63247,2.20323 -1.10371,2.33687 -4.13146,1.17165 z"
           id="path4778" />
        <path
           style="fill:#028200;fill-opacity:1;stroke:#000024;stroke-width:14.9914;stroke-miterlimit:4;stroke-dasharray:none;stroke-opacity:0;paint-order:markers stroke fill"
           d="m 116.16646,147.66634 c -1.77597,-0.33242 -5.01742,-1.25576 -7.20323,-2.05188 -3.96809,-1.44527 -10.183882,-4.81995 -10.183882,-5.52905 0,-0.20611 12.462832,-6.42241 27.695192,-13.81398 24.66596,-11.96927 27.83104,-13.38667 28.93713,-12.95867 3.0826,1.19279 20.16102,8.63098 20.51657,8.93561 0.21845,0.18716 -1.45818,1.98083 -3.72582,3.98592 -19.25386,17.0246 -39.07688,24.60631 -56.03596,21.43205 z"
           id="path4817" />
        <path
           style="fill:#028200;fill-opacity:1;stroke:#000024;stroke-width:14.9914;stroke-miterlimit:4;stroke-dasharray:none;stroke-opacity:0;paint-order:markers stroke fill"
           d="m 91.327726,134.01257 c -5.135473,-4.97051 -9.656492,-10.69386 -13.763973,-17.42441 -2.090197,-3.42501 -2.502725,-4.42522 -2.008982,-4.87095 0.551581,-0.49796 40.838499,-18.81158 41.382329,-18.81158 0.12004,0 4.85801,2.583413 10.52871,5.740915 5.67069,3.157505 13.10471,7.171965 16.52004,8.921035 3.41532,1.74906 6.61237,3.43926 7.10454,3.75599 0.77833,0.50087 -2.69191,2.31302 -26.64202,13.91242 -15.14528,7.3351 -27.731375,13.3383 -27.969086,13.34045 -0.237709,0.002 -2.555909,-2.05159 -5.151558,-4.56387 z"
           id="path4856" />
        <path
           style="fill:#028200;fill-opacity:1;stroke:#000024;stroke-width:14.9914;stroke-miterlimit:4;stroke-dasharray:none;stroke-opacity:0;paint-order:markers stroke fill"
           d="M 73.225474,109.07456 C 70.479473,105.08067 59.556341,78.159298 60.252901,77.102088 c 0.126553,-0.19208 4.742648,-1.989935 10.257991,-3.995232 6.728957,-2.446552 10.243518,-3.507115 10.683345,-3.223837 0.360499,0.232186 2.955675,1.985022 5.767053,3.895195 2.811381,1.910169 10.212413,6.701532 16.44674,10.647468 6.23433,3.945938 11.24704,7.257074 11.13936,7.358083 -0.23484,0.220292 -31.871093,14.547805 -37.010605,16.761465 l -3.607059,1.55361 z"
           id="path4895" />
        <path
           style="fill:#028200;fill-opacity:1;stroke:#000024;stroke-width:14.9914;stroke-miterlimit:4;stroke-dasharray:none;stroke-opacity:0;paint-order:markers stroke fill"
           d="m 57.679269,69.72269 c -2.584148,-8.768323 -5.316312,-19.640427 -5.008258,-19.929389 0.163727,-0.153582 4.515102,2.82605 9.669716,6.6214 5.154617,3.795356 10.898596,7.949116 12.7644,9.230586 l 3.39237,2.329944 -2.522848,1.077601 c -3.583267,1.530542 -15.395666,5.679237 -16.170254,5.679237 -0.402077,0 -1.210186,-1.904889 -2.125126,-5.009379 z"
           id="path4934" />
        <path
           style="fill:#028200;fill-opacity:1;stroke:#000024;stroke-width:14.9914;stroke-miterlimit:4;stroke-dasharray:none;stroke-opacity:0;paint-order:markers stroke fill"
           d="M 65.992215,54.373926 C 61.25614,50.993445 55.06317,46.178287 55.06317,45.876374 c 0,-0.187078 2.962018,-0.812354 6.582264,-1.389508 3.620248,-0.57715 6.927829,-1.138257 7.350181,-1.246903 0.686531,-0.176599 0.699227,0.28409 0.119791,4.347059 -0.356466,2.499525 -0.813801,5.328346 -1.016302,6.286271 l -0.368183,1.741677 z"
           id="path4973" />
        <path
           style="fill:#00aa00;fill-opacity:1;stroke:#000024;stroke-width:45.4233;stroke-miterlimit:4;stroke-dasharray:none;stroke-opacity:0;paint-order:markers stroke fill"
           d="m 645.81327,363.67553 c -10.1799,-10.37914 -13.13861,-12.14056 -24.23266,-14.42658 -9.39907,-1.93675 -36.57475,-11.39328 -37.70063,-13.11899 -1.50738,-2.31043 -11.36421,-6.62664 -29.99397,-13.13406 l -19.03637,-6.64944 5.4441,-45.19235 c 8.6892,-72.13034 11.94061,-96.77255 12.99343,-98.47604 2.24002,-3.62443 45.10285,15.84504 67.01429,30.43971 14.15142,9.42591 36.16763,30.6472 44.2327,42.63561 l 5.46875,8.1291 -7.37089,57.4727 c -4.05399,31.60998 -7.52861,58.31999 -7.72137,59.35557 -0.19276,1.03557 -4.28658,-2.13028 -9.09738,-7.03523 z"
           id="path5485"
           transform="scale(0.26458333)" />
        <path
           style="fill:#00aa00;fill-opacity:1;stroke:#000024;stroke-width:45.4233;stroke-miterlimit:4;stroke-dasharray:none;stroke-opacity:0;paint-order:markers stroke fill"
           d="m 518.11007,302.9302 c -4.18905,-8.59879 -4.75152,-11.16 -4.68599,-21.33761 l 0.0745,-11.56589 -10.16841,-10.04808 c -5.59262,-5.52645 -12.02905,-11.01026 -14.30317,-12.18625 -6.84988,-3.54222 -22.41187,-5.00642 -53.53289,-5.03683 -29.05097,-0.0284 -29.64806,-0.0909 -35.37209,-3.70435 -4.60838,-2.90914 -5.67187,-4.35291 -5.10074,-6.92463 0.39688,-1.78704 3.37507,-18.9936 6.61822,-38.2368 3.24315,-19.24319 6.25174,-36.13565 6.68576,-37.5388 0.68083,-2.20109 2.7262,-2.54921 14.90461,-2.53677 21.12336,0.0216 54.09491,2.61703 74.61492,5.87354 25.36527,4.02546 41.31349,7.28344 42.86152,8.75597 2.51122,2.38875 0.98958,20.6519 -8.61835,103.43931 -4.6081,39.70599 -4.8049,40.8189 -7.21817,40.8189 -1.09959,0 -4.14145,-4.39727 -6.7597,-9.77171 z"
           id="path5524"
           transform="scale(0.26458333)" />
        <path
           style="fill:#2ca02c;fill-opacity:1;stroke:#000024;stroke-width:45.4233;stroke-miterlimit:4;stroke-dasharray:none;stroke-opacity:0;paint-order:markers stroke fill"
           d="m 384.13498,222.12547 c -1.2027,-1.56914 -5.13802,-3.86098 -8.74516,-5.09296 -3.60714,-1.23198 -11.9058,-6.0649 -18.44148,-10.73982 -19.39645,-13.87414 -15.15264,-12.88795 -58.82461,-13.66983 l -29.88526,-0.53506 0.52938,-13.67719 c 0.29116,-7.52246 1.21678,-14.10919 2.05692,-14.63717 4.99384,-3.13832 122.51002,-13.12561 126.37039,-10.73977 0.61984,0.38308 0.89966,2.18821 0.62183,4.0114 -0.27784,1.82319 -2.57383,17.41927 -5.10221,34.65797 -2.52837,17.23869 -5.00115,31.77786 -5.49506,32.30925 -0.4939,0.5314 -1.88204,-0.31767 -3.08474,-1.88682 z"
           id="path5563"
           transform="scale(0.26458333)" />
        <path
           style="fill:#2ca02c;fill-opacity:1;stroke:#000024;stroke-width:45.4233;stroke-miterlimit:4;stroke-dasharray:none;stroke-opacity:0;paint-order:markers stroke fill"
           d="m 254.3892,182.22722 c -1.73439,-2.8063 -4.06711,-5.10236 -5.18382,-5.10236 -1.8395,0 -7.34451,-8.38503 -6.22176,-9.47677 0.92699,-0.90139 17.74332,-3.62306 18.39001,-2.97637 1.14251,1.1425 -1.34202,22.65786 -2.61646,22.65786 -0.66799,0 -2.63358,-2.29606 -4.36797,-5.10236 z"
           id="path5602"
           transform="scale(0.26458333)" />
        <path
           style="fill:#00aa00;fill-opacity:1;stroke:#000024;stroke-width:45.4233;stroke-miterlimit:4;stroke-dasharray:none;stroke-opacity:0;paint-order:markers stroke fill"
           d="m 674.80852,396.67436 c -4.89942,-5.69396 -9.71978,-11.67886 -10.71193,-13.29979 -1.47996,-2.4179 -0.58644,-12.75868 4.97566,-57.5838 3.72876,-30.05017 6.95797,-55.27535 7.17602,-56.05597 0.7626,-2.72999 9.54216,23.90774 12.08282,36.66 3.78842,19.01512 3.44046,61.08455 -0.68972,83.38727 -1.68879,9.1194 -3.26275,16.73017 -3.49768,16.91283 -0.23494,0.18266 -4.43576,-4.32658 -9.33517,-10.02054 z"
           id="path5680"
           transform="scale(0.26458333)" />
        <path
           style="fill:#00aa00;fill-opacity:1;stroke:#000024;stroke-width:45.4233;stroke-miterlimit:4;stroke-dasharray:none;stroke-opacity:0;paint-order:markers stroke fill"
           d="m 449.00787,559.04305 c -5.61259,-0.7116 -16.10888,-2.96128 -23.32508,-4.9993 -13.66603,-3.85959 -49.01627,-20.63328 -49.95825,-23.70519 -0.66276,-2.16134 91.09439,-47.54188 93.92838,-46.45438 1.07312,0.4118 1.95113,1.38595 1.95113,2.16478 0,0.77884 8.75282,8.31349 19.45072,16.74367 18.13498,14.29076 37.40417,32.77055 37.40417,35.87182 0,0.74356 2.29812,2.91354 5.10693,4.82217 l 5.10694,3.47025 -12.76049,3.78232 c -26.88711,7.96958 -55.32338,11.04002 -76.90445,8.30386 z"
           id="path5719"
           transform="scale(0.26458333)" />
        <path
           style="fill:#00aa00;fill-opacity:1;stroke:#000024;stroke-width:45.4233;stroke-miterlimit:4;stroke-dasharray:none;stroke-opacity:0;paint-order:markers stroke fill"
           d="m 346.59577,506.22722 c -9.17513,-9.02025 -20.92796,-21.64859 -26.11739,-28.06299 -9.03229,-11.16438 -25.27028,-34.39428 -25.27028,-36.15141 0,-0.46142 6.85454,3.95977 15.23232,9.82486 18.4815,12.93846 18.46369,12.93519 71.50784,13.14166 39.7075,0.15456 48.41432,1.37827 67.38334,9.47047 l 9.24415,3.94357 -15.71756,7.48333 c -8.64467,4.11584 -29.49396,14.06178 -46.33176,22.10209 -16.83779,8.04032 -31.20691,14.62554 -31.93138,14.63382 -0.72446,0.008 -8.82414,-7.36515 -17.99928,-16.3854 z"
           id="path5758"
           transform="scale(0.26458333)" />
        <path
           style="fill:#803300;fill-opacity:1;stroke:#000024;stroke-width:17.1114;stroke-miterlimit:4;stroke-dasharray:none;stroke-opacity:0;paint-order:markers stroke fill"
           d="m 796.14498,492.51273 c -0.38751,-0.15566 -3.8473,-2.87596 -7.68842,-6.04511 -7.46551,-6.15949 -11.73014,-8.94853 -13.69556,-8.95683 -0.67099,-0.003 -2.61698,0.61266 -4.32442,1.36778 -1.70744,0.75511 -3.42773,1.37293 -3.82286,1.37293 -0.87862,0 -1.52718,-1.8478 -1.10833,-3.15774 0.28069,-0.8779 1.43625,-0.96517 13.35444,-1.0086 11.06659,-0.0403 14.66054,-0.27488 23.67542,-1.54507 5.84554,-0.82364 10.75995,-1.36583 10.92091,-1.20487 0.31929,0.31929 -0.52309,5.13717 -1.88142,10.76049 -1.14017,4.72012 -2.50988,7.32617 -4.27271,8.12937 -1.40391,0.63966 -9.74539,0.85472 -11.15705,0.28765 z"
           id="path5951"
           transform="scale(0.26458333)" />
      </g>
    </g>
    <text
       xml:space="preserve"
       style="font-size:16.4092px;line-height:1.25;font-family:'Franklin Gothic Demi Cond';-inkscape-font-specification:'Franklin Gothic Demi Cond';fill:#ffffff;stroke-width:0.41023"
       x="167.78879"
       y="158.13708"
       id="text7668"
       transform="scale(1.0402223,0.96133299)"><tspan
         sodipodi:role="line"
         id="tspan7666"
         style="fill:#ffffff;stroke-width:0.41023"
         x="167.78879"
         y="158.13708">sheet</tspan></text>
  </g>
</svg>
